<svg width="98" height="19" viewBox="0 0 98 19" fill="none" xmlns="http://www.w3.org/2000/svg">
<path d="M13.864 13.056C13.864 10.8 12.4 9.36 10.216 8.88C12.184 8.112 13.288 6.648 13.288 4.752C13.288 1.944 10.912 0.551999 7.624 0.551999H0.16V18H8.2C11.176 18 13.864 16.464 13.864 13.056ZM4.336 2.928H6.832C8.392 2.928 9.208 3.912 9.208 5.376C9.208 6.936 8.296 7.872 6.736 7.872H4.336V2.928ZM4.336 15.624V10.224H6.832C8.632 10.224 9.784 11.184 9.784 12.912C9.784 14.712 8.704 15.624 6.88 15.624H4.336ZM17.0116 18H29.3236V15.624H21.2596V10.296H28.4116V7.92H21.2596V2.928H29.1796V0.551999H17.0116V18ZM30.2974 18H32.9614L34.4254 13.776H41.5294L42.9214 18H47.6014L41.5774 0.551999H36.3454L30.2974 18ZM35.2414 11.424L38.0734 3.264L40.7614 11.424H35.2414ZM53.1998 0.551999H48.9278V10.752C48.9278 15.648 51.3518 18.24 56.3198 18.24C61.2878 18.24 63.7358 15.624 63.7358 10.728V0.551999H60.7838V10.896C60.7838 13.728 59.8478 15.768 56.9678 15.768C54.0638 15.768 53.1998 13.896 53.1998 10.896V0.551999ZM66.0241 2.928H70.9681V18H75.2161V2.928H80.1841V0.551999H66.0241V2.928ZM91.0589 11.976L97.0829 0.551999H94.2509L89.7869 9.048L85.2749 0.551999H80.2829L86.8109 12.264V18H91.0589V11.976Z" fill="white"/>
</svg>
