<svg width="236" height="130" viewBox="0 0 236 130" fill="none" xmlns="http://www.w3.org/2000/svg">
<path d="M79.48 13.296C79.192 10.848 78.688 8.472 77.608 6.31199C76.6 4.29599 75.088 2.784 73.072 1.704C71.2 0.695995 69.112 0.767999 66.88 1.77599C65.656 2.27999 64.504 3.07199 63.424 3.93599C61.552 5.376 59.824 6.96 58.168 8.616L57.088 9.83999C55.936 11.208 54.712 12.648 53.56 14.088C52.912 14.88 52.192 15.744 51.616 16.608C50.176 18.624 48.736 20.712 47.296 22.728L45.784 25.104C44.848 26.616 43.912 28.056 43.048 29.568C42.328 30.72 41.608 31.872 40.96 33.096C39.448 35.76 37.864 38.424 36.496 41.16L33.472 46.992C33.328 47.352 33.112 47.712 32.896 48.072C32.392 48.72 32.104 49.512 31.672 50.232C31.24 51.24 30.736 52.248 30.232 53.256L26.992 59.952C26.272 61.536 25.552 63.192 24.76 64.776L21.232 72.408C20.08 75 19 77.592 17.848 80.184C17.416 81.264 17.272 81.336 16.12 81.192C15.112 81.048 14.104 80.904 13.096 80.688C10.36 80.04 7.912 78.96 5.824 77.16C4.816 76.296 3.952 75.36 3.304 74.208C3.088 73.848 2.872 73.416 2.8 73.056C2.584 72.552 2.728 72.048 3.16 71.616C3.304 71.472 3.448 71.328 3.592 71.112C3.448 71.112 3.376 71.04 3.304 71.04C3.016 71.112 2.8 71.328 2.656 71.544L1.936 72.624C1.864 73.2 2.08 73.776 2.368 74.28C3.016 75.648 4.024 76.8 5.176 77.808C7.12 79.392 9.352 80.544 11.8 81.336C13.24 81.84 14.68 82.2 16.12 82.416C16.336 82.488 16.48 82.56 16.624 82.632L16.48 83.208C15.904 84.576 15.328 86.016 14.752 87.456L14.104 88.968C13.528 90.408 12.88 91.92 12.304 93.432C11.584 95.16 10.864 96.888 10.144 98.688L7.984 104.376C7.768 105.096 7.48 105.744 7.192 106.464C6.904 107.4 6.616 108.336 6.184 109.344C5.248 111.504 4.384 113.736 3.592 115.968C2.872 117.912 2.152 119.856 1.144 121.728C1.144 121.872 1.072 121.944 1.072 122.016C0.928 122.376 1.072 122.664 1.36 122.808C1.576 122.952 1.792 122.952 2.008 123.096C2.224 123.384 2.512 123.456 2.944 123.24C3.376 123.456 3.736 123.24 3.952 122.952C4.168 122.304 4.312 121.8 4.528 121.224C5.176 119.496 5.896 117.768 6.616 116.112C6.76 115.68 6.904 115.32 7.192 114.96L7.408 114.168C8.2 112.152 8.992 110.136 9.856 108.12C10.864 105.456 11.944 102.792 13.024 100.056C14.032 97.752 14.968 95.448 15.904 93.144C17.272 89.904 18.568 86.664 19.936 83.352L20.152 83.064C20.656 82.776 21.16 82.776 21.592 82.776C24.04 82.848 26.488 82.632 28.936 82.128C33.04 81.408 37.144 80.112 41.176 78.312C43.48 77.304 45.784 76.08 47.944 74.712C49.456 73.776 51.04 72.768 52.48 71.616C53.704 70.608 55 69.6 56.224 68.52C57.088 67.728 58.024 67.008 58.672 66.072C58.744 65.928 58.888 65.856 59.032 65.712C59.752 64.992 60.472 64.344 61.048 63.552C61.768 62.616 62.56 61.752 63.28 60.888C63.424 60.744 63.496 60.672 63.568 60.528C63.784 60.24 63.928 59.952 64.144 59.736C65.08 58.368 66.016 57 67.024 55.632C67.384 55.056 67.816 54.48 68.248 53.904L68.176 53.976C68.392 53.328 68.752 52.752 69.256 52.248V52.32C69.544 51.24 70.192 50.304 70.84 49.368C70.912 49.296 70.984 49.296 71.056 49.368C71.128 49.008 71.272 48.648 71.416 48.288C72.064 46.776 72.712 45.336 73.648 43.896C73.648 43.752 73.648 43.68 73.72 43.536C74.368 42.168 75.016 40.728 75.448 39.288C75.52 38.928 75.664 38.64 75.808 38.28C76.096 37.488 76.384 36.768 76.6 35.976C77.104 34.32 77.536 32.664 78.04 31.08C78.04 30.792 78.112 30.576 78.184 30.36C78.4 28.992 78.688 27.624 78.904 26.328L79.264 24.024C79.336 23.16 79.48 22.296 79.552 21.504C79.624 20.28 79.696 19.128 79.696 17.976C79.768 16.392 79.624 14.88 79.48 13.296ZM76.096 24.312C75.664 27.336 74.872 30.288 74.08 33.312C73.432 35.688 72.568 37.992 71.632 40.296C71.2 41.448 70.768 42.528 70.192 43.608C69.76 44.4 69.472 45.264 69.04 46.128L66.88 50.088C65.44 52.68 63.784 55.128 62.056 57.576C61.48 58.368 60.832 59.088 60.256 59.808C58.24 62.328 56.08 64.632 53.704 66.792C52.192 68.16 50.536 69.528 48.88 70.752C45.424 73.344 41.824 75.432 38.008 77.16C36.28 77.952 34.48 78.6 32.68 79.248C30.16 80.04 27.712 80.616 25.192 80.976L22.024 81.336C21.52 81.336 21.52 81.336 21.088 80.832L21.952 78.744C23.176 76.008 24.4 73.272 25.624 70.536L26.128 69.672C26.2 69.672 26.2 69.672 26.2 69.6L26.128 69.672C26.272 68.952 26.632 68.232 26.92 67.584C28.072 65.136 29.224 62.616 30.448 60.168C31.456 58.008 32.536 55.848 33.544 53.688C33.688 53.4 33.832 53.04 34.048 52.752C34.192 52.464 34.408 52.248 34.552 51.96C34.696 51.6 34.768 51.312 34.912 51.024C36.136 48.648 37.36 46.272 38.584 43.968C38.656 43.752 38.872 43.536 39.016 43.32L39.232 42.672C39.736 41.664 40.312 40.728 40.816 39.792C40.888 39.648 41.032 39.504 41.176 39.36C41.248 39.072 41.392 38.712 41.536 38.496L46.432 29.928C46.648 29.568 46.936 29.28 47.224 28.92L47.44 28.56C47.656 28.2 47.8 27.84 47.944 27.48C49.168 25.608 50.392 23.664 51.76 21.792C52.48 20.856 53.128 19.848 53.848 18.84C53.992 18.624 54.208 18.48 54.424 18.264C54.784 17.472 55.36 16.752 56.08 16.104C56.152 15.96 56.224 15.744 56.368 15.6C57.16 14.592 58.024 13.584 58.888 12.576C58.888 12.504 59.032 12.504 59.104 12.432C59.752 11.496 60.472 10.704 61.408 10.056C61.408 9.98399 61.48 9.83999 61.552 9.768V10.056C61.768 9.83999 61.984 9.62399 61.984 9.336C63.496 7.96799 65.08 6.74399 66.664 5.52C67.744 4.72799 68.968 4.008 70.192 3.648C72.064 3.07199 73.648 3.57599 74.512 5.01599C75.304 6.24 75.664 7.68 76.024 9.11999C76.456 11.064 76.672 13.152 76.744 15.24C76.816 18.192 76.528 21.216 76.096 24.312ZM64.648 4.224L64.576 4.29599C64.576 4.224 64.576 4.224 64.648 4.224ZM55 13.944L55.432 13.368C55.72 12.72 56.224 12.216 56.8 11.712C57.016 11.28 57.304 10.92 57.736 10.632C57.808 10.416 57.952 10.272 58.024 10.128C59.608 8.39999 61.264 6.67199 63.136 5.23199L63.568 4.944C63.712 5.08799 63.568 5.16 63.496 5.23199L62.272 6.31199C62.056 6.52799 61.768 6.816 61.696 7.176C61.408 7.68 60.976 8.112 60.4 8.32799C60.256 8.75999 59.896 9.11999 59.464 9.408L58.816 10.128C58.672 10.344 58.456 10.56 58.168 10.632C58.24 10.488 58.312 10.416 58.384 10.272L57.808 10.704C57.736 10.776 57.736 10.92 57.664 10.992C57.808 10.92 57.952 10.848 58.096 10.704C58.024 10.992 57.88 11.136 57.664 11.28V11.352C57.664 11.352 57.592 11.352 57.592 11.424C57.52 11.64 57.304 11.856 57.016 12C57.088 11.856 57.16 11.712 57.232 11.568L56.872 11.784C56.8 11.856 56.8 12 56.8 12.072C56.872 12.072 56.872 12.072 56.944 12C56.872 12.144 56.728 12.36 56.584 12.504C56.656 12.36 56.728 12.216 56.728 12.144C56.512 12.288 56.368 12.432 56.296 12.648C56.368 12.648 56.44 12.576 56.512 12.576L56.152 13.008C56.224 12.936 56.224 12.792 56.296 12.648C56.08 12.792 55.936 12.936 55.864 13.224C55.936 13.152 56.008 13.152 56.08 13.152C55.936 13.296 55.864 13.44 55.792 13.584C55.648 13.728 55.432 13.944 55.288 14.088L54.856 14.664C54.712 14.808 54.568 14.952 54.424 15.096V15.24H54.352L54.136 15.6C54.208 15.456 54.208 15.312 54.208 15.168C54.064 15.24 53.992 15.312 53.848 15.312C54.064 14.808 54.424 14.304 55 13.944ZM20.44 81.048C20.224 80.904 20.368 80.76 20.44 80.616C20.944 79.32 21.52 78.024 22.096 76.8L25.984 68.088C27.208 65.424 28.504 62.76 29.728 60.096C31.024 57.432 32.32 54.696 33.688 52.032C35.272 48.936 36.784 45.696 38.512 42.6C40.024 39.936 41.464 37.2 43.048 34.536C44.632 31.656 46.288 28.776 48.16 26.04C49.456 24.096 50.68 22.224 51.976 20.28L54.784 16.464C56.584 14.088 58.528 11.784 60.688 9.62399C62.128 8.04 63.712 6.6 65.44 5.376C65.584 5.304 65.728 5.23199 65.872 5.08799C65.872 5.16 65.944 5.16 65.944 5.23199C65.872 5.304 65.728 5.44799 65.656 5.59199C62.704 7.896 60.112 10.632 57.664 13.44C55.792 15.672 54.064 17.976 52.336 20.28C49.888 23.664 47.728 27.192 45.496 30.72L43.408 34.392C41.176 38.208 39.16 42.024 37.144 45.912C36.064 47.928 34.984 49.944 33.976 52.032L31.096 57.864C29.584 61.176 28 64.488 26.488 67.8C24.904 71.184 23.392 74.64 21.808 78.096C21.448 78.96 21.088 79.824 20.656 80.76C20.656 80.832 20.512 80.904 20.44 81.048ZM60.184 8.39999C60.256 8.39999 60.328 8.32799 60.4 8.32799C60.472 8.18399 60.472 8.04 60.544 7.96799L60.184 8.39999ZM59.464 9.048C59.392 9.11999 59.32 9.26399 59.32 9.336H59.392C59.392 9.192 59.464 9.11999 59.464 9.048ZM58.816 9.768C58.744 9.83999 58.672 9.98399 58.6 10.056H58.744C58.744 9.98399 58.744 9.83999 58.816 9.768ZM57.592 11.424V11.352C57.592 11.352 57.664 11.352 57.664 11.28C57.664 11.208 57.664 11.136 57.664 10.992L57.232 11.568C57.376 11.496 57.448 11.424 57.592 11.424ZM55.792 13.584C55.792 13.44 55.792 13.296 55.864 13.152L55.432 13.368C55.432 13.512 55.36 13.656 55.36 13.728C55.504 13.656 55.648 13.656 55.792 13.584ZM55.288 14.088C55.36 14.016 55.36 13.872 55.36 13.728L55 13.944C54.928 14.016 54.928 14.16 54.928 14.304C55.072 14.232 55.216 14.16 55.288 14.088ZM54.568 14.664H54.856C54.856 14.52 54.928 14.376 54.928 14.304C54.784 14.376 54.712 14.52 54.568 14.664ZM54.208 15.24C54.28 15.24 54.28 15.24 54.352 15.24V15.168C54.352 15.168 54.424 15.168 54.424 15.096C54.424 14.952 54.424 14.808 54.496 14.736C54.352 14.88 54.28 15.096 54.208 15.24ZM52.912 16.392C52.984 16.392 53.056 16.32 53.128 16.32C53.2 15.888 53.416 15.672 53.776 15.456C53.704 15.744 53.488 16.104 53.128 16.32C53.056 16.32 53.056 16.392 53.056 16.464C52.984 16.536 52.984 16.536 52.912 16.536V16.392ZM55.288 17.4L55.216 17.472C55.288 17.472 55.288 17.4 55.288 17.4ZM50.464 19.992C50.536 19.848 50.608 19.704 50.68 19.632C50.752 19.488 50.824 19.344 50.968 19.272C50.896 19.344 50.752 19.488 50.68 19.632L50.464 19.992C50.392 20.136 50.32 20.208 50.176 20.352C50.248 20.208 50.392 20.064 50.464 19.992ZM53.416 19.992V19.92L53.344 19.992H53.416ZM49.384 21.36L49.456 21.432L49.312 21.648C49.312 21.648 49.24 21.648 49.24 21.576L49.384 21.36ZM47.944 23.592C48.088 23.52 48.16 23.376 48.232 23.232C48.304 23.16 48.376 23.016 48.448 22.872H48.52L48.448 22.944C48.376 23.016 48.304 23.16 48.232 23.304C48.16 23.376 48.088 23.52 47.944 23.664V23.592ZM47.08 25.176C46.936 25.248 46.864 25.32 46.792 25.392C46.792 25.32 46.792 25.248 46.864 25.176C46.864 25.176 46.936 25.104 47.08 25.176ZM45.928 26.76C46.072 26.616 46.144 26.472 46.216 26.4C46.144 26.472 46.072 26.616 46 26.76C45.856 26.904 45.784 26.976 45.712 27.12C45.784 26.976 45.856 26.832 45.928 26.76ZM47.872 28.2C47.872 28.272 47.8 28.344 47.8 28.344L47.944 28.2H47.872ZM47.656 28.56C47.728 28.488 47.728 28.416 47.8 28.344L47.656 28.56ZM47.656 28.56H47.44C47.44 28.632 47.44 28.776 47.368 28.92C47.512 28.776 47.584 28.704 47.656 28.56ZM43.624 30.576C43.552 30.72 43.48 30.864 43.408 30.936L43.624 30.576ZM44.848 33.312V33.24L44.776 33.312H44.848ZM41.032 34.968C40.96 35.112 40.888 35.328 40.744 35.472L41.032 34.968ZM40.24 36.408V36.48H40.168L40.24 36.408ZM39.232 43.392C39.16 43.392 39.088 43.392 39.016 43.32C39.016 43.536 38.944 43.752 38.944 43.968C39.016 43.752 39.088 43.536 39.232 43.392ZM38.584 44.472L38.656 44.4H38.584V44.472ZM68.392 53.976H68.248C68.248 54.12 68.248 54.12 68.392 53.976ZM66.088 56.352C64.36 58.872 62.488 61.392 60.4 63.696L58.24 66C57.952 66.216 57.664 66.432 57.448 66.648C57.088 67.08 56.656 67.44 56.08 67.728L56.296 67.44C56.656 67.152 57.016 66.864 57.376 66.504C57.592 66.288 57.736 66 58.024 65.784C61.192 62.544 63.928 59.088 66.448 55.416C66.664 55.056 66.808 54.768 67.168 54.552C66.808 55.2 66.52 55.776 66.088 56.352ZM30.592 54.912C30.592 54.912 30.592 54.912 30.52 54.912H30.592ZM29.944 56.136L30.088 55.992C30.016 56.064 30.016 56.064 30.016 56.136L29.944 56.208V56.136ZM54.64 67.224H54.568C54.64 67.08 54.64 67.008 54.712 66.936C56.8 65.064 58.6 63.048 60.4 60.96L61.048 60.312C61.12 60.096 61.264 59.88 61.552 59.808H61.48C61.624 59.448 61.912 59.16 62.2 58.944C62.128 59.232 62.056 59.376 61.912 59.592C61.768 59.664 61.624 59.736 61.552 59.808C61.48 59.952 61.48 60.024 61.408 60.168H61.48C61.552 60.168 61.552 60.168 61.624 60.168L61.408 60.528C61.192 60.744 61.048 60.888 60.904 61.104C60.832 61.32 60.688 61.536 60.472 61.608C60.4 61.896 60.256 62.04 60.04 62.184C59.752 62.688 59.32 63.12 58.888 63.48C58.672 63.768 58.456 64.128 58.096 64.2H57.952C57.952 64.488 57.736 64.704 57.52 64.92C57.52 64.848 57.52 64.704 57.52 64.632L57.16 65.064C57.088 65.208 56.944 65.352 56.8 65.496C56.728 65.568 56.656 65.712 56.584 65.856C56.656 65.712 56.656 65.64 56.656 65.496C56.44 65.712 56.224 65.928 56.008 66.216C55.504 66.576 55.072 66.936 54.64 67.224ZM30.88 59.952V59.88H30.808L30.88 59.952ZM60.976 60.744L61.408 60.528C61.408 60.384 61.408 60.312 61.48 60.168L61.048 60.384C61.048 60.456 60.976 60.6 60.976 60.744ZM60.688 61.104H60.904C60.976 60.96 60.976 60.816 60.976 60.744C60.904 60.816 60.832 60.96 60.688 61.104ZM60.256 61.608H60.472C60.472 61.536 60.472 61.392 60.544 61.248C60.472 61.392 60.328 61.536 60.256 61.608ZM25.336 65.856C25.336 65.928 25.336 65.928 25.264 66C25.264 65.928 25.336 65.928 25.336 65.856ZM24.76 67.152C24.688 67.44 24.688 67.728 24.4 68.088C24.4 67.656 24.616 67.368 24.76 67.152ZM22.6 71.832C22.672 71.76 22.672 71.76 22.672 71.76V71.832C22.6 71.904 22.6 71.976 22.6 71.976V71.832ZM19.432 83.64C19 84.72 18.496 85.8 18.064 86.808C17.344 88.608 16.552 90.408 15.832 92.136L13.24 98.544C12.088 101.352 11.008 104.232 9.856 107.04C8.704 109.992 7.48 112.944 6.256 115.968C5.68 117.552 5.032 119.136 4.384 120.792C4.312 120.936 4.24 121.224 3.88 121.296C3.952 121.08 4.024 120.936 4.096 120.792L7.984 111.216C8.848 109.056 9.64 106.968 10.432 104.88L14.32 95.304C15.04 93.504 15.76 91.632 16.552 89.76C17.344 87.816 18.208 85.8 19.072 83.784C19.144 83.568 19.288 83.352 19.432 83.136C19.576 83.352 19.504 83.496 19.432 83.64ZM16.048 87.168C15.976 87.168 15.976 87.24 15.976 87.24C15.976 87.312 15.976 87.312 15.904 87.312V87.24C15.976 87.168 15.976 87.168 16.048 87.168ZM15.76 87.528C15.832 87.528 15.832 87.528 15.832 87.456V87.528C15.832 87.6 15.76 87.6 15.76 87.672V87.528ZM12.808 101.424C12.88 101.424 12.88 101.424 12.88 101.424V101.352C12.88 101.352 12.88 101.424 12.808 101.424ZM65.359 83.424C65.071 82.92 64.639 82.488 64.207 82.056C63.415 81.264 62.551 80.976 61.543 81.12C60.463 81.264 59.383 81.624 58.447 82.056C56.935 82.776 55.495 83.496 54.127 84.288C53.047 84.936 52.039 85.44 51.031 86.16C49.735 87.096 48.439 87.888 47.287 89.04L46.567 89.688C46.495 89.76 46.351 89.904 46.207 89.76C46.063 89.616 46.063 89.544 46.063 89.4C46.063 89.256 46.207 89.112 46.207 88.896C46.207 87.456 46.855 86.088 47.071 84.576C47.143 84 47.215 83.424 46.999 82.848C46.855 82.416 46.567 82.128 46.207 81.912C46.063 81.84 45.919 81.84 45.847 81.984L45.631 82.416C45.271 83.136 45.055 83.928 44.839 84.72C44.335 86.448 43.687 88.104 43.111 89.832C42.463 91.848 41.959 93.792 41.311 95.736C41.167 96.168 41.239 96.528 41.599 96.888C41.743 97.032 41.959 97.176 42.031 97.392C42.247 97.968 42.679 98.112 43.183 98.328C43.543 98.472 43.831 98.4 44.119 98.328C44.407 98.256 44.335 97.968 44.407 97.824C44.407 97.824 44.479 97.824 44.551 97.752C44.551 97.68 44.623 97.608 44.695 97.536L44.839 97.392C45.199 96.528 45.775 95.88 46.423 95.232C46.567 94.944 46.783 94.656 46.999 94.512C47.071 94.584 47.071 94.728 47.071 94.872C47.287 94.584 47.503 94.368 47.647 94.152H47.287C47.647 93.648 48.007 93.144 48.583 92.856C48.583 92.784 48.655 92.784 48.655 92.712C48.727 92.64 48.799 92.568 48.799 92.496C48.871 92.496 48.943 92.424 49.015 92.352C49.087 92.136 49.231 92.064 49.447 91.992C49.519 91.92 49.591 91.848 49.591 91.776L49.735 91.632C49.735 91.704 49.735 91.704 49.807 91.776C49.807 91.704 49.807 91.704 49.735 91.632H49.807C49.879 91.272 50.167 91.056 50.527 90.912L50.671 90.696C50.815 90.48 51.031 90.264 51.319 90.192L51.463 89.976C51.607 89.904 51.679 89.832 51.823 89.832C51.823 89.76 51.895 89.688 51.967 89.616H51.895C52.039 89.472 52.183 89.328 52.399 89.256L52.543 89.112C52.687 88.896 52.903 88.824 53.047 88.68C53.191 88.536 53.407 88.464 53.551 88.32C53.623 88.104 53.839 88.032 53.983 87.96V88.032C53.983 88.104 54.055 88.104 54.055 88.176C54.055 88.104 54.127 88.104 54.199 88.032V87.96C54.415 87.888 54.631 87.744 54.847 87.672C54.847 87.672 54.847 87.672 54.847 87.6L54.991 87.456C55.279 87.24 55.711 87.096 55.783 86.808C55.855 86.592 56.071 86.592 56.215 86.52C56.503 86.376 56.791 86.232 57.007 86.088C57.511 85.728 58.015 85.368 58.591 85.08C59.671 84.576 60.751 84 61.903 83.568C62.263 83.424 62.623 83.352 63.055 83.208C63.631 82.992 64.063 83.136 64.639 83.712C64.711 83.784 64.711 83.784 64.783 83.784C64.999 83.784 65.071 84 65.215 83.856C65.359 83.712 65.431 83.568 65.359 83.424ZM59.815 82.416C59.887 82.416 59.671 82.56 59.383 82.56C59.455 82.488 59.599 82.416 59.815 82.416ZM49.087 88.896C49.231 88.608 49.447 88.464 49.735 88.392C49.807 88.176 49.951 88.032 50.167 88.032C50.239 87.744 50.455 87.672 50.599 87.6C50.743 87.456 50.959 87.312 51.103 87.24C51.319 87.024 51.607 86.808 51.895 86.664C52.111 86.448 52.399 86.232 52.759 86.16C53.119 85.8 53.623 85.44 54.199 85.224C55.351 84.504 56.503 83.784 57.799 83.28C57.871 83.136 58.015 83.136 58.159 83.136C58.375 82.848 58.663 82.776 59.023 82.776C59.095 82.632 59.239 82.632 59.311 82.632C59.383 82.632 59.383 82.704 59.383 82.776C59.239 82.776 59.167 82.776 59.023 82.776V82.92C58.807 83.064 58.591 83.28 58.231 83.136V83.28C58.087 83.352 58.015 83.352 57.871 83.352C57.871 83.424 57.871 83.424 57.871 83.496L57.583 83.712V83.64C57.367 83.784 57.295 84 57.079 84.072C57.007 84.144 56.863 84.216 56.719 84.216C56.647 84.36 56.575 84.36 56.431 84.432L56.071 84.576C55.927 84.864 55.639 85.008 55.279 85.08V84.936C55.135 85.008 55.063 85.08 54.991 85.08L55.279 85.152C55.207 85.224 55.063 85.296 54.991 85.296C54.919 85.224 54.919 85.224 54.919 85.152C54.847 85.224 54.703 85.224 54.631 85.296H54.919C54.919 85.44 54.775 85.44 54.631 85.512C54.559 85.584 54.415 85.656 54.343 85.656C54.271 85.584 54.271 85.584 54.271 85.512V85.656C54.127 85.944 53.839 86.088 53.479 86.232C53.407 86.304 53.335 86.376 53.191 86.376C53.047 86.592 52.903 86.664 52.687 86.736C52.615 86.88 52.471 86.88 52.399 86.952C52.327 86.88 52.327 86.808 52.327 86.736L52.039 86.808C52.039 86.88 52.039 86.88 51.967 86.952H52.327C52.255 87.096 52.111 87.24 51.895 87.312C51.823 87.384 51.679 87.456 51.535 87.456C51.535 87.384 51.535 87.312 51.535 87.312H51.247C51.175 87.456 51.103 87.528 51.031 87.672H51.391C51.319 87.744 51.247 87.816 51.103 87.816C51.103 87.744 51.031 87.672 51.031 87.672C50.959 87.672 50.815 87.672 50.743 87.744C50.671 87.816 50.599 87.888 50.599 88.032H50.887C50.815 88.032 50.671 88.104 50.599 88.176C50.599 88.104 50.599 88.032 50.599 88.032H50.239C50.167 88.104 50.095 88.248 50.095 88.392C50.239 88.392 50.311 88.392 50.455 88.392L50.095 88.536C50.095 88.464 50.095 88.392 50.095 88.392H49.735C49.663 88.464 49.663 88.608 49.591 88.752H49.951C49.879 88.896 49.735 89.04 49.519 89.04C49.519 89.04 49.447 88.968 49.447 88.896C49.375 88.896 49.231 88.896 49.159 88.968C49.087 88.968 49.015 89.04 49.015 89.04C49.015 88.968 49.087 88.968 49.087 88.896ZM60.751 83.568C57.511 84.648 54.775 86.808 52.183 88.824C49.663 90.768 47.575 93.072 45.631 95.448C45.343 95.808 45.127 96.24 44.695 96.528H44.623V96.456C44.623 96.168 44.839 95.952 44.983 95.808C47.215 93.576 48.943 91.056 51.391 89.04C53.695 87.096 56.287 85.584 59.023 84.072C59.815 83.64 60.535 83.352 61.399 83.136C61.255 83.352 60.967 83.496 60.751 83.568ZM54.343 85.368V85.44C54.415 85.44 54.559 85.44 54.631 85.512C54.631 85.44 54.631 85.368 54.559 85.296C54.487 85.368 54.415 85.368 54.343 85.368ZM53.119 86.232H53.479C53.479 86.16 53.479 86.088 53.479 86.016L53.119 86.232ZM52.831 86.232C52.831 86.304 52.831 86.376 52.831 86.376H53.191C53.191 86.304 53.119 86.232 53.119 86.232H52.831ZM52.327 86.736H52.687C52.687 86.664 52.687 86.592 52.687 86.52L52.327 86.736ZM51.535 87.312C51.679 87.312 51.751 87.312 51.895 87.312V87.096C51.751 87.168 51.607 87.24 51.535 87.312ZM53.551 88.536V88.32C53.479 88.392 53.551 88.392 53.551 88.536ZM53.551 88.536L53.623 88.608C53.623 88.536 53.551 88.536 53.551 88.536ZM48.943 89.112C48.943 89.184 48.871 89.328 48.871 89.4H48.511C48.583 89.256 48.727 89.112 48.943 89.112ZM52.615 89.256H52.399C52.399 89.328 52.471 89.4 52.471 89.4L52.615 89.256ZM52.327 89.616C52.327 89.544 52.399 89.544 52.471 89.472V89.4C52.399 89.472 52.327 89.544 52.255 89.616H52.327ZM48.295 89.616C48.223 89.832 48.079 89.904 47.863 89.976C48.007 89.832 48.151 89.688 48.295 89.616ZM51.967 89.832L52.255 89.616C52.183 89.616 52.039 89.616 51.967 89.616V89.832ZM51.823 89.976C51.895 89.904 51.895 89.832 51.967 89.832C51.895 89.832 51.823 89.832 51.823 89.832V89.976ZM51.463 90.12C51.463 90.192 51.463 90.192 51.463 90.192L51.823 89.976C51.679 89.976 51.607 89.976 51.463 89.976V90.12ZM51.535 90.192H51.463H51.535ZM51.319 90.336L51.463 90.192C51.391 90.192 51.391 90.192 51.319 90.192V90.336ZM51.319 90.336L51.175 90.552C51.247 90.48 51.319 90.408 51.319 90.336ZM51.031 90.696C51.103 90.624 51.175 90.624 51.175 90.552C51.103 90.552 51.103 90.624 51.031 90.696ZM50.743 90.912C50.815 90.84 50.887 90.768 51.031 90.696H50.671C50.671 90.768 50.743 90.84 50.743 90.912ZM47.215 90.768C47.143 90.912 46.999 90.984 46.783 91.056C46.927 90.912 47.071 90.768 47.215 90.768ZM50.671 90.912H50.527C50.527 90.984 50.599 90.984 50.599 91.056C50.599 90.984 50.671 90.984 50.671 90.912ZM50.311 91.488C50.311 91.416 50.383 91.344 50.383 91.272L50.239 91.488H50.311ZM49.663 91.992C49.735 91.92 49.735 91.848 49.807 91.776H49.591C49.663 91.848 49.663 91.92 49.663 91.992ZM49.519 92.136C49.519 92.064 49.591 92.064 49.663 91.992H49.447C49.447 92.064 49.519 92.064 49.519 92.136ZM49.375 92.352C49.375 92.28 49.447 92.208 49.519 92.136C49.447 92.208 49.375 92.28 49.303 92.352H49.375ZM49.015 92.496C49.159 92.424 49.231 92.424 49.303 92.352C49.231 92.352 49.087 92.352 49.015 92.352V92.496ZM48.871 92.712L49.015 92.496C48.943 92.496 48.871 92.496 48.871 92.496V92.712ZM48.727 92.856L48.871 92.712C48.799 92.712 48.727 92.712 48.727 92.712V92.856ZM48.583 93C48.655 93 48.655 92.928 48.727 92.856C48.655 92.856 48.583 92.856 48.583 92.856V93ZM48.583 93.072C48.511 93.072 48.439 93.144 48.439 93.216C48.439 93.144 48.511 93.144 48.583 93.072ZM48.151 93.576C48.151 93.504 48.223 93.504 48.295 93.432C48.295 93.36 48.367 93.288 48.439 93.216L48.223 93.432C48.223 93.432 48.151 93.504 48.079 93.576L47.935 93.792C47.935 93.792 47.863 93.864 47.791 93.936L48.007 93.792C48.007 93.72 48.079 93.648 48.151 93.576ZM47.791 93.936C47.791 94.008 47.719 94.08 47.647 94.152H47.719C47.719 94.08 47.791 94.008 47.791 93.936ZM47.071 94.872L46.927 95.016C46.999 94.944 47.071 94.944 47.071 94.872ZM46.207 95.952L46.279 95.88H46.207L46.063 96.096C46.135 96.024 46.135 95.952 46.207 95.952ZM45.919 96.312C45.919 96.24 45.991 96.168 46.063 96.096L45.847 96.312C45.847 96.384 45.775 96.384 45.775 96.456C45.847 96.456 45.847 96.384 45.919 96.312ZM45.775 96.456L45.703 96.528C45.775 96.528 45.775 96.456 45.775 96.456ZM45.703 96.528L45.559 96.672C45.559 96.744 45.487 96.744 45.487 96.816L45.631 96.672C45.703 96.6 45.703 96.6 45.703 96.528ZM45.487 96.816L45.343 96.96C45.271 97.032 45.271 97.104 45.199 97.104C45.271 97.104 45.343 97.032 45.343 97.032L45.487 96.816ZM45.127 97.248C45.127 97.248 45.199 97.176 45.199 97.104C45.199 97.176 45.127 97.176 45.127 97.248ZM45.127 97.248C45.055 97.248 45.055 97.32 44.983 97.392C45.055 97.32 45.127 97.32 45.127 97.248ZM44.983 97.392H44.839C44.839 97.464 44.839 97.464 44.839 97.536L44.983 97.392ZM44.695 97.752C44.767 97.68 44.839 97.608 44.839 97.536C44.767 97.536 44.767 97.536 44.695 97.536V97.752ZM44.551 97.752H44.695C44.623 97.68 44.551 97.68 44.551 97.752ZM86.8414 85.44C86.9854 85.152 87.3454 85.224 87.4174 84.864C87.4894 84.576 87.0574 84.504 86.9134 84.216V84.144C86.9134 83.784 86.4094 83.712 86.0494 83.712C85.8334 83.712 85.6174 83.712 85.4734 83.784C83.1694 84.36 84.8974 84.432 77.4814 85.368C76.4014 85.512 75.3934 85.512 74.3134 85.44C73.8814 85.44 73.5934 85.296 73.5214 84.792C73.3054 84 72.8014 83.424 72.2974 82.848C72.0094 82.488 71.5774 82.416 71.3614 83.064C71.2174 83.712 70.9294 84.36 70.7134 85.008C70.2094 86.592 69.5614 88.176 68.6974 89.616C67.6174 91.344 66.3214 92.856 64.7374 94.224C64.5214 94.368 64.3054 94.584 64.0894 94.656C63.8014 94.728 63.5854 94.584 63.6574 94.368C63.6574 93.936 63.7294 93.504 63.8734 93.144C64.2334 91.488 64.9534 90.048 65.6014 88.536C65.9614 87.816 66.3934 87.096 66.8254 86.448C67.4014 85.512 68.0494 84.576 68.6254 83.712C68.8414 83.352 68.9134 82.992 68.9854 82.632C68.9854 82.2 68.6974 81.984 68.4814 81.84C68.1934 81.696 67.9774 81.84 67.8334 81.984C67.6174 82.128 67.4734 82.272 67.3294 82.416C66.6814 83.208 65.9614 84 65.3134 84.864C64.1614 86.52 63.0814 88.248 62.2894 90.12C62.0014 90.84 61.7134 91.488 61.4974 92.136C61.0654 93.648 61.2814 95.016 62.3614 96.168C62.7934 96.672 63.3694 97.032 64.0174 97.104C65.1694 97.248 66.0334 96.6 66.9694 96.096C67.0414 96.024 67.0414 96.024 67.0414 95.952C67.3294 95.376 67.8334 95.016 68.2654 94.584V94.656L68.4814 94.44C68.4814 94.368 68.5534 94.296 68.6254 94.224C68.9854 93.792 69.4894 93.504 69.7054 92.928C69.7054 92.856 69.7774 92.784 69.8494 92.712C70.3534 92.208 70.6414 91.632 71.0014 90.984C71.4334 90.048 71.8654 89.112 72.2254 88.104C72.2974 87.888 72.4414 87.672 72.5134 87.456C72.5854 87.312 72.7294 87.24 72.8734 87.312L73.3054 87.528C74.0974 88.032 74.9614 88.248 75.9694 88.248C77.4814 88.32 79.0654 88.104 80.5774 87.816C83.4574 87.312 83.4574 87.024 86.2654 86.088C86.4814 86.016 86.6974 86.016 86.9854 85.944C87.2014 85.872 87.4174 85.656 87.5614 85.44H86.8414ZM65.3854 95.16C65.3134 95.16 65.2414 95.16 65.2414 95.16H64.8814C64.9534 94.944 65.1694 94.8 65.3134 94.728C65.3854 94.728 65.4574 94.656 65.6014 94.656C65.6014 94.656 65.6014 94.728 65.5294 94.8H65.8894C65.8174 94.872 65.6734 94.944 65.6014 94.944L65.3854 95.16ZM65.9614 96.096C65.8894 96.096 65.8894 96.096 65.8174 96.168C65.8174 96.096 65.8894 96.024 65.8894 96.024C66.3214 95.52 66.8254 95.16 67.3294 94.8C67.1134 95.448 66.6094 95.88 65.9614 96.096ZM122.654 39.36C122.366 38.784 121.862 38.424 121.502 37.992C121.142 37.704 120.782 37.704 120.494 38.064C120.206 38.352 119.918 38.64 119.702 39L115.382 45.408C114.374 46.92 113.438 48.432 112.574 50.016L109.478 55.2C108.47 57.144 107.39 59.088 106.31 60.96C106.022 61.464 105.734 61.896 105.518 62.4C105.23 62.904 104.942 63.408 104.726 63.84L103.142 66.648C102.134 68.52 101.198 70.392 100.118 72.192C98.8216 74.496 97.4536 76.8 96.0856 79.104C95.5816 79.968 95.0056 80.832 94.5016 81.768C94.1416 82.2 94.0696 82.2 93.4936 82.056C92.9896 81.912 92.4856 81.768 91.9816 81.768C90.2536 81.624 88.7416 82.2 87.3736 83.208C86.0776 84.144 85.0696 85.368 84.2056 86.664C83.8456 87.24 83.6296 87.816 83.3416 88.392C83.1256 88.968 82.9816 89.616 82.9816 90.264C82.9816 90.624 82.9816 90.984 83.1976 91.272C83.6296 92.208 84.3496 92.856 85.3576 93.216C85.7896 93.432 86.2936 93.432 86.7256 93.288C87.4456 93.144 88.0216 92.928 88.5976 92.568C91.1176 91.128 93.1336 89.112 94.8616 86.808V86.736C94.8616 86.736 94.9336 86.664 95.0056 86.592H94.8616C94.8616 86.52 94.9336 86.448 95.0056 86.376C95.0776 86.376 95.0776 86.304 95.1496 86.232C95.2936 86.016 95.3656 85.872 95.4376 85.656C95.5096 85.656 95.5816 85.584 95.6536 85.512C95.6536 85.584 95.6536 85.584 95.6536 85.656L95.7976 85.512C96.0136 85.44 96.2296 85.512 96.2296 85.728C96.3016 86.088 96.3016 86.376 96.3016 86.736C96.3736 87.024 96.3736 87.24 96.7336 87.384C96.8776 87.384 96.8776 87.528 96.8776 87.672C96.8056 87.888 96.8056 88.104 96.7336 88.248C96.5176 89.184 96.2296 90.048 96.0136 90.912C95.3656 93.36 94.5736 95.808 94.2136 98.4C94.1416 99.048 94.0696 99.696 94.1416 100.344C94.2136 101.064 94.5016 101.64 95.0776 102C95.2216 102.072 95.2936 102.144 95.4376 102.288C96.1576 102.792 96.9496 102.864 97.6696 102.432C98.0296 102.216 98.3896 102 98.6776 101.712C100.046 100.416 101.27 99.048 102.422 97.608C103.214 96.744 103.934 95.736 104.726 94.8L108.542 90.336C108.686 90.192 108.902 89.976 108.974 89.688C108.614 89.904 108.398 90.192 108.182 90.48C107.966 90.696 107.75 90.984 107.462 91.128C107.39 91.128 107.39 91.2 107.318 91.272L107.174 91.416C107.174 91.344 107.246 91.272 107.318 91.272C107.318 91.2 107.39 91.128 107.462 91.128C107.462 90.912 107.606 90.768 107.678 90.624C108.83 89.472 109.91 88.248 110.99 87.024C111.134 86.952 111.278 86.88 111.422 86.736C111.494 86.736 111.566 86.664 111.566 86.592C111.638 86.52 111.71 86.448 111.782 86.448C111.782 86.376 111.854 86.304 111.926 86.232C111.998 86.16 111.998 86.088 112.07 86.088C112.07 86.088 112.07 86.16 112.142 86.232C112.358 86.16 112.574 85.944 112.718 85.8C113.15 85.296 113.582 84.864 114.014 84.432C114.374 84.072 114.374 83.856 113.942 83.568C113.366 83.136 113.222 83.136 112.79 83.568L112.574 83.784C111.278 84.936 110.126 86.304 108.83 87.528C107.606 88.824 106.31 90.192 105.086 91.56L101.702 95.232C100.406 96.672 99.1816 98.04 97.9576 99.48C97.7416 99.696 97.5256 99.912 97.3096 100.056C97.0936 100.2 97.0936 100.2 96.6616 99.912H96.7336C96.6616 99.408 96.7336 98.904 96.9496 98.472C97.0216 97.32 97.3096 96.24 97.7416 95.232C97.7416 94.8 97.8136 94.44 97.9576 94.008C98.2456 92.928 98.6056 91.776 98.9656 90.696C99.0376 90.48 99.0376 90.192 99.2536 89.976C99.3256 89.904 99.3976 89.76 99.3976 89.616V89.688C99.3976 89.328 99.5416 89.04 99.6856 88.752C99.6856 88.536 99.7576 88.32 99.8296 88.176C99.8296 87.816 99.9736 87.528 100.118 87.24C100.19 86.808 100.334 86.376 100.55 86.016C100.55 85.872 100.622 85.8 100.694 85.656C100.694 85.224 100.91 84.792 101.126 84.36C101.126 83.784 101.414 83.28 101.702 82.776C101.774 82.632 101.774 82.416 101.846 82.272L101.99 81.912C102.35 80.4 102.998 78.96 103.574 77.592C103.646 77.304 103.79 77.088 103.862 76.872C103.934 76.728 104.006 76.584 104.006 76.512C104.15 76.008 104.294 75.504 104.582 75.072C104.942 74.064 105.302 73.128 105.806 72.192C105.878 71.976 105.95 71.76 106.094 71.616C106.166 71.472 106.166 71.328 106.238 71.256C106.454 70.392 106.886 69.6 107.318 68.88C107.318 68.808 107.39 68.664 107.462 68.52V68.592C107.534 68.448 107.606 68.304 107.606 68.16V68.232C107.678 67.872 107.822 67.512 108.11 67.296C108.11 67.152 108.182 67.08 108.182 67.008C108.47 66.432 108.542 65.784 108.974 65.28C109.118 64.848 109.262 64.416 109.622 64.056C109.622 63.912 109.622 63.768 109.766 63.696C109.838 63.336 109.982 63.048 110.198 62.76C110.27 62.544 110.342 62.4 110.558 62.256C110.558 62.112 110.63 62.04 110.702 61.896C110.702 61.752 110.774 61.68 110.846 61.536H110.774C111.134 60.6 111.566 59.592 112.214 58.8C112.43 58.008 112.862 57.36 113.222 56.64C113.51 56.136 113.654 55.632 114.086 55.2C114.158 55.128 114.302 54.984 114.374 54.84H114.446C114.374 54.84 114.374 54.768 114.374 54.696C114.374 54.552 114.446 54.408 114.518 54.336L114.734 54.12C114.806 53.688 114.95 53.184 115.31 52.896C115.382 52.536 115.526 52.248 115.742 51.96C115.742 51.888 115.742 51.816 115.814 51.816C116.246 50.952 116.678 50.016 117.326 49.224C117.47 49.08 117.542 48.936 117.614 48.72H117.686C117.686 48.648 117.614 48.648 117.614 48.576C117.974 48 118.406 47.496 118.622 46.848C118.694 46.488 118.91 46.272 119.198 46.056V45.84C119.27 45.624 119.342 45.408 119.486 45.336C119.846 44.904 120.134 44.544 120.278 44.04C120.278 43.896 120.422 43.824 120.494 43.68H120.422C120.638 43.392 120.782 43.104 120.926 42.816C121.214 42.312 121.502 41.88 121.862 41.52C121.862 41.448 121.862 41.376 121.862 41.376H122.078V41.304C122.294 40.944 122.51 40.584 122.654 40.152C122.87 39.936 122.798 39.648 122.654 39.36ZM114.734 54.336V54.12C114.662 54.192 114.662 54.192 114.662 54.264C114.662 54.264 114.734 54.264 114.734 54.336ZM114.518 54.336H114.734C114.662 54.264 114.59 54.264 114.518 54.336ZM109.766 62.472C109.766 62.472 109.694 62.472 109.694 62.544C109.694 62.472 109.766 62.4 109.766 62.4V62.472ZM109.19 63.768C109.118 63.768 109.118 63.768 109.046 63.84C109.046 63.768 109.118 63.768 109.118 63.696C109.118 63.624 109.19 63.624 109.19 63.696V63.768ZM108.47 65.136C108.47 64.992 108.542 64.92 108.614 64.776C108.614 64.92 108.542 65.064 108.47 65.136ZM107.678 66.72C107.75 66.504 107.822 66.36 108.038 66.288C107.966 66.432 107.894 66.648 107.678 66.72ZM107.534 67.152C107.462 67.44 107.318 67.8 107.102 67.944C107.174 67.656 107.318 67.368 107.534 67.152C107.534 67.008 107.606 66.864 107.678 66.792C107.678 66.936 107.606 67.008 107.534 67.152ZM106.166 69.96C106.166 69.888 106.166 69.888 106.238 69.816V69.744C106.31 69.816 106.31 69.816 106.31 69.888C106.238 69.888 106.238 69.96 106.166 69.96ZM106.022 70.248L106.166 70.032C106.166 70.104 106.094 70.176 106.022 70.248ZM105.878 70.68C105.95 70.536 105.95 70.464 106.022 70.392C105.95 70.464 105.95 70.608 105.878 70.68ZM105.446 71.76C105.374 71.4 105.518 71.256 105.734 71.112C105.734 71.328 105.662 71.544 105.446 71.76ZM104.366 74.064C104.438 73.92 104.51 73.704 104.654 73.488C104.726 73.848 104.582 73.992 104.366 74.064ZM104.078 74.856C104.078 74.712 104.15 74.64 104.222 74.568C104.222 74.64 104.15 74.784 104.078 74.856ZM103.574 76.152C103.574 76.224 103.502 76.224 103.502 76.224V76.152C103.574 76.08 103.574 76.008 103.646 76.08C103.646 76.152 103.574 76.152 103.574 76.152ZM104.222 76.512C104.15 76.512 104.15 76.512 104.078 76.512H104.006C104.078 76.584 104.078 76.728 104.078 76.8C104.15 76.728 104.15 76.584 104.222 76.512ZM99.3976 78.6C99.3976 78.456 99.4696 78.24 99.6856 78.168C99.6136 78.312 99.5416 78.528 99.3976 78.6ZM102.35 79.32C102.35 79.248 102.422 79.176 102.422 79.032C102.422 79.176 102.422 79.248 102.35 79.32ZM96.3736 83.568C96.3736 83.568 96.3016 83.64 96.2296 83.568V83.424C96.4456 83.064 96.5896 82.704 96.9496 82.416C97.0216 82.272 97.0216 82.128 97.0936 82.056C97.6696 81.12 98.1736 80.184 98.8216 79.392C98.8216 79.608 98.8216 79.752 98.7496 79.896C98.1736 80.76 97.7416 81.696 97.0216 82.488C96.9496 82.92 96.7336 83.28 96.3736 83.568ZM101.918 80.544C101.846 80.184 101.99 79.968 102.134 79.752C102.134 80.04 102.134 80.256 101.918 80.544ZM98.8216 80.976C98.8936 81.12 98.9656 81.192 98.9656 81.336C98.9656 81.408 98.9656 81.552 98.8936 81.624C98.3896 83.136 97.9576 84.576 97.4536 86.016C97.3816 86.16 97.3096 86.232 97.3096 86.304C97.0936 86.232 97.0936 86.088 97.0936 86.016C97.0216 85.656 97.0216 85.368 96.8776 85.008C96.5176 84.288 96.5896 83.712 97.1656 83.208C97.4536 82.632 97.6696 82.056 98.1736 81.696C98.3896 81.048 98.7496 80.4 99.2536 79.968L98.8216 80.976ZM101.126 82.56C101.198 82.272 101.198 81.984 101.414 81.768C101.414 82.056 101.27 82.344 101.126 82.56ZM102.062 82.272C101.99 82.128 101.99 81.984 101.99 81.912C101.99 82.056 101.99 82.128 101.99 82.272H102.062ZM87.2296 90.408C86.7976 90.768 86.2936 91.056 85.7176 91.272C85.4296 91.416 85.2136 91.272 85.2136 90.912C85.2856 90.048 85.4296 89.184 85.7896 88.464C86.2216 87.672 86.6536 86.88 87.3016 86.232C87.5176 86.016 87.7336 85.8 87.7336 85.512C87.3736 85.656 87.2296 85.944 86.9416 86.16C86.7976 86.376 86.6536 86.664 86.3656 86.808C86.2936 87.096 86.1496 87.312 85.9336 87.456C85.9336 87.168 86.0776 86.88 86.3656 86.736C86.7976 85.728 87.5176 85.008 88.4536 84.432C88.5976 84.216 88.7416 84.072 89.0296 84.072C88.9576 84.288 88.7416 84.36 88.5256 84.504C88.3816 84.792 88.0216 84.936 87.8776 85.368C88.2376 85.296 88.4536 85.08 88.6696 84.864C89.3176 84.36 89.9656 83.928 90.6856 83.568C91.3336 83.28 91.9816 83.064 92.7736 83.064H93.1336C93.2776 83.136 93.3496 83.28 93.2776 83.424C93.1336 83.712 92.9896 84.072 92.7736 84.288C92.2696 84.936 91.7656 85.584 91.3336 86.232C90.1096 87.816 88.7416 89.184 87.2296 90.408ZM100.982 83.352H100.91C100.838 83.352 100.838 83.352 100.838 83.28C100.91 83.208 100.91 83.136 100.982 83.064V83.352ZM97.1656 83.208H97.3816C97.3096 83.136 97.2376 83.136 97.1656 83.208ZM88.0216 83.568C88.0216 83.712 87.8776 83.712 87.7336 83.712C87.8056 83.568 87.9496 83.568 88.0216 83.568ZM94.5736 83.712C94.5016 83.784 94.4296 83.856 94.4296 83.856H94.2136C94.2856 83.568 94.3576 83.568 94.5736 83.712ZM87.5176 83.856C87.5896 83.784 87.6616 83.784 87.6616 83.712C87.6616 83.784 87.6616 83.856 87.5896 83.928C87.4456 84.432 87.0136 84.792 86.5816 85.152C86.5096 85.224 86.5096 85.224 86.4376 85.296V85.152C86.4376 85.152 86.5096 85.152 86.5816 85.152L86.3656 84.936C86.6536 84.432 87.0136 84.072 87.5176 83.856ZM113.006 83.856C112.718 84.432 112.718 84.432 112.214 84.72C112.43 84.432 112.646 84.144 113.006 83.856ZM91.0456 88.536C91.0456 88.536 91.0456 88.464 91.0456 88.392L90.8296 88.608C90.6136 88.68 90.4696 88.896 90.1816 88.896C90.6136 88.248 91.1896 87.672 91.7656 87.096C92.0536 86.592 92.3416 86.16 92.7016 85.8L92.9176 85.656C92.9896 85.368 93.1336 85.152 93.4216 84.936C93.4216 84.864 93.4936 84.792 93.5656 84.792C93.6376 84.504 93.7816 84.288 94.0696 84.072C94.0696 84.216 94.0696 84.288 94.0696 84.432H94.2856C94.2136 84.504 94.2136 84.576 94.1416 84.576C94.1416 84.504 94.1416 84.504 94.0696 84.432C94.0696 84.504 93.9976 84.576 93.9256 84.648H94.0696C94.0696 84.792 93.9256 85.008 93.7816 85.152C93.7816 85.008 93.7816 84.864 93.7816 84.792H93.5656C93.5656 84.864 93.4936 84.936 93.4936 85.008C93.4936 85.08 93.4936 85.224 93.4216 85.296C93.4216 85.368 93.3496 85.44 93.2776 85.512H93.4216C93.4216 85.584 93.3496 85.584 93.2776 85.656V85.512C93.2056 85.584 93.2056 85.656 93.1336 85.656C93.0616 85.728 93.0616 85.728 92.9896 85.728V85.872C92.9896 85.8 93.0616 85.728 93.1336 85.728H93.2776C93.2776 85.944 93.2056 86.088 92.9896 86.232C92.9176 86.304 92.9176 86.376 92.8456 86.376V86.232C92.8456 86.232 92.9176 86.232 92.9896 86.232V85.872C92.9176 85.872 92.9176 85.944 92.8456 85.944C92.8456 86.016 92.8456 86.16 92.7736 86.232C92.7736 86.304 92.7016 86.376 92.6296 86.448H92.8456C92.7736 86.52 92.7736 86.592 92.7016 86.592C92.6296 86.52 92.6296 86.448 92.6296 86.448C92.5576 86.448 92.5576 86.52 92.4856 86.592H92.6296C92.6296 86.664 92.5576 86.736 92.4856 86.736V86.592C92.4136 86.664 92.4136 86.736 92.3416 86.736H92.4136C92.4136 86.736 92.4856 86.736 92.4856 86.808C92.4136 87.168 92.1256 87.456 91.8376 87.672C91.8376 87.744 91.7656 87.744 91.6936 87.816C91.6936 87.744 91.6936 87.744 91.6936 87.672L91.5496 87.816C91.4776 87.888 91.4056 87.96 91.3336 88.032H91.4776C91.4776 88.104 91.4056 88.176 91.3336 88.176C91.3336 88.176 91.3336 88.104 91.3336 88.032L91.1896 88.248C91.2616 88.248 91.2616 88.248 91.3336 88.248L91.1896 88.392C91.1176 88.464 91.1176 88.536 91.0456 88.536ZM95.5816 84.792C95.5816 84.864 95.5816 84.864 95.5096 84.936C94.5736 86.304 93.6376 87.6 92.4856 88.752C92.3416 88.968 92.1256 89.184 91.8376 89.328C91.8376 89.4 91.7656 89.472 91.6936 89.544C91.6216 89.688 91.4776 89.76 91.3336 89.832C91.3336 89.616 91.4776 89.544 91.6216 89.4C91.6936 89.4 91.6936 89.328 91.7656 89.256C91.9096 89.112 91.9816 88.896 92.1256 88.752C93.2056 87.528 94.2136 86.232 95.1496 84.936C95.2216 84.792 95.2936 84.72 95.4376 84.576H95.5816C95.6536 84.648 95.6536 84.72 95.5816 84.792ZM100.262 85.08C100.334 84.936 100.334 84.792 100.406 84.648C100.406 84.792 100.406 84.936 100.262 85.08ZM86.2216 85.152L86.3656 85.008C86.3656 85.008 86.3656 85.08 86.3656 85.152H86.2216C86.2216 85.224 86.2216 85.296 86.2216 85.296H86.0776C86.1496 85.296 86.1496 85.224 86.2216 85.152ZM86.0776 85.368C86.0776 85.368 86.0776 85.44 86.0776 85.512H86.2216C86.2216 85.584 86.1496 85.656 86.0776 85.656C86.0776 85.584 86.0776 85.584 86.0776 85.512H85.9336C85.9336 85.44 86.0056 85.368 86.0776 85.368ZM86.4376 85.368C86.3656 85.368 86.2936 85.44 86.2936 85.512C86.2936 85.44 86.2216 85.368 86.2216 85.368H86.4376ZM93.6376 85.368C93.5656 85.368 93.4936 85.44 93.4936 85.512C93.4936 85.44 93.4936 85.368 93.4936 85.368H93.6376ZM85.8616 85.512C85.8616 85.584 85.9336 85.656 85.9336 85.656H85.7176C85.7896 85.656 85.8616 85.584 85.8616 85.512ZM95.4376 85.656V85.728H95.6536V85.656H95.5816H95.4376ZM85.7176 85.728C85.7176 85.728 85.7176 85.8 85.7176 85.872H85.5736C85.6456 85.8 85.6456 85.728 85.7176 85.728ZM86.0776 85.728C86.0056 85.728 86.0056 85.8 85.9336 85.872C85.9336 85.8 85.9336 85.728 85.9336 85.728H86.0776ZM110.774 86.232C110.558 86.592 110.27 86.952 110.054 87.24C109.766 87.528 109.55 87.744 109.19 87.816C109.694 87.24 110.126 86.664 110.774 86.232ZM112.07 86.232C111.998 86.232 111.998 86.232 111.926 86.232V86.376C111.998 86.376 112.07 86.304 112.07 86.232ZM95.0056 86.448V86.592C95.0776 86.52 95.1496 86.448 95.1496 86.448H95.0056ZM111.926 86.448C111.854 86.448 111.782 86.448 111.782 86.448V86.592C111.854 86.52 111.854 86.448 111.926 86.448ZM111.638 86.736C111.638 86.736 111.71 86.664 111.782 86.592H111.566C111.638 86.664 111.638 86.736 111.638 86.736ZM111.566 86.808H111.638V86.736C111.638 86.736 111.638 86.736 111.566 86.736V86.808ZM99.3976 87.6C99.4696 87.312 99.4696 87.024 99.6856 86.808C99.6856 87.096 99.6136 87.384 99.3976 87.6ZM110.774 87.672C111.206 87.456 111.422 87.168 111.566 86.808C111.566 86.808 111.494 86.808 111.422 86.808L110.774 87.672ZM85.8616 87.528C85.8616 87.744 85.7896 87.888 85.5736 87.96C85.6456 87.816 85.7176 87.6 85.8616 87.528ZM110.558 87.888H110.63C110.702 87.816 110.702 87.744 110.774 87.672L110.63 87.816C110.63 87.888 110.63 87.888 110.558 87.888ZM91.6936 87.888C91.6216 87.888 91.5496 87.96 91.5496 88.032C91.5496 87.96 91.5496 87.888 91.5496 87.888H91.6936ZM109.19 89.472C109.838 89.112 110.27 88.536 110.558 87.888C110.054 88.32 109.55 88.824 109.19 89.472ZM91.0456 88.392C91.0456 88.392 91.1176 88.392 91.1896 88.392V88.248C91.1176 88.248 91.0456 88.32 91.0456 88.392ZM108.182 88.968C107.894 89.688 107.39 90.192 106.742 90.552C107.102 89.904 107.606 89.4 108.182 88.968ZM108.974 89.616V89.688C109.046 89.616 109.118 89.544 109.118 89.472C109.046 89.544 109.046 89.616 108.974 89.616ZM90.6856 90.336C90.8296 90.192 90.9736 90.12 91.1176 90.048C90.9736 90.192 90.9016 90.336 90.6856 90.336ZM106.382 90.912C106.166 91.488 105.806 91.92 105.23 92.136C105.518 91.632 105.878 91.272 106.382 90.912ZM98.3176 91.272V91.2C98.3896 91.2 98.3896 91.2 98.3176 91.272ZM104.294 94.656C104.87 93.864 105.446 93.144 106.166 92.496C106.166 92.424 106.238 92.424 106.31 92.352L106.454 92.136C106.526 92.064 106.598 92.064 106.598 91.992L106.814 91.776C106.814 91.704 106.886 91.632 106.958 91.632C107.03 91.56 107.03 91.488 107.102 91.488C107.102 91.56 107.03 91.56 106.958 91.632C106.958 91.704 106.886 91.776 106.814 91.848C106.814 91.92 106.742 91.992 106.67 91.992C106.67 92.064 106.598 92.136 106.526 92.208L106.382 92.424C106.31 92.496 106.238 92.496 106.238 92.568C105.662 93.432 105.014 94.224 104.222 94.872C104.222 94.8 104.222 94.728 104.294 94.656ZM105.014 92.424C105.014 92.424 105.014 92.496 104.942 92.496L105.014 92.424ZM102.206 95.52C102.782 94.8 103.358 94.08 104.078 93.504C104.006 93.576 104.006 93.72 103.934 93.864C103.286 94.584 102.71 95.376 101.99 95.952C102.062 95.808 102.062 95.664 102.206 95.52ZM97.3096 94.44C97.3816 94.152 97.3816 93.864 97.5976 93.648C97.6696 94.008 97.5256 94.224 97.3096 94.44ZM104.078 95.016C104.078 94.944 104.15 94.944 104.15 94.872C104.15 94.944 104.078 95.016 104.078 95.016ZM103.862 95.232C103.862 95.376 103.79 95.376 103.718 95.448C103.358 96.168 102.854 96.672 102.278 97.176C102.566 96.6 103.142 95.88 103.718 95.448L103.862 95.232C103.934 95.16 103.934 95.088 104.006 95.088C104.006 95.16 103.934 95.232 103.862 95.232ZM136.011 86.376C135.867 85.944 135.219 85.512 134.643 85.584L133.491 86.016C132.483 86.52 131.403 87.096 130.323 87.6C129.171 88.176 128.091 88.752 127.011 89.328C126.723 89.544 126.363 89.76 126.003 89.832C124.851 90.552 123.555 91.2 122.331 91.848C121.899 92.136 121.395 92.352 120.963 92.568C120.747 92.568 120.531 92.712 120.387 92.568C120.243 92.496 120.315 92.28 120.315 92.136C120.387 91.992 120.459 91.848 120.459 91.632C120.675 90.768 121.179 90.048 121.539 89.184C121.539 88.968 121.611 88.824 121.683 88.68C121.827 88.32 121.755 87.96 121.539 87.6C121.251 87.024 120.675 86.592 120.171 86.232C119.811 85.944 119.451 85.872 119.019 86.088L118.587 86.376C117.507 87.024 116.499 87.744 115.419 88.464C113.979 89.544 112.467 90.624 111.027 91.632C110.595 91.848 110.235 92.064 109.875 92.136C109.443 92.352 109.299 92.208 109.371 91.704L109.515 91.2C109.587 90.768 109.731 90.336 109.803 89.832C109.875 89.472 110.019 89.112 110.307 88.752C110.523 88.536 110.595 88.248 110.667 87.888C110.883 87.456 111.099 87.024 111.387 86.592C111.819 85.8 112.323 85.008 112.611 84.144C112.755 83.784 112.827 83.496 112.755 83.064C112.683 82.776 112.395 82.56 112.107 82.56C111.963 82.488 111.819 82.632 111.675 82.776L111.459 83.064C110.091 84.576 108.939 86.376 107.931 88.176C107.499 88.824 107.139 89.616 106.923 90.408C106.707 91.416 106.779 92.208 107.427 93C107.643 93.144 107.787 93.432 108.003 93.576C108.579 94.296 109.443 94.512 110.379 94.512C110.739 94.512 111.099 94.44 111.459 94.368C112.395 94.08 113.259 93.576 114.051 93.072C114.987 92.568 115.851 91.848 116.715 91.2C116.859 91.056 117.075 90.912 117.219 90.84C117.363 90.696 117.579 90.84 117.579 91.056V91.416C117.291 92.352 117.651 93.072 118.299 93.792L119.019 94.512C119.451 94.944 119.955 95.088 120.531 95.088C121.467 95.16 122.331 95.016 123.123 94.512C124.851 93.576 126.435 92.568 128.091 91.416C129.171 90.696 130.251 89.832 131.403 89.256C132.627 88.536 133.851 87.816 135.147 87.168C135.363 87.024 135.651 86.952 135.867 86.88C136.083 86.808 136.083 86.592 136.011 86.376ZM118.947 87.24C118.875 87.312 118.803 87.312 118.731 87.312L118.515 87.6C118.443 87.6 118.371 87.672 118.227 87.672C118.155 87.744 118.155 87.816 118.083 87.888H118.299C118.227 87.96 118.155 88.032 118.083 88.032V87.888C118.011 87.96 117.939 88.032 117.867 88.032C117.795 88.104 117.651 88.176 117.579 88.248H117.867C117.867 88.176 117.867 88.104 117.867 88.104H118.083C118.011 88.104 117.939 88.176 117.867 88.248C117.723 88.32 117.651 88.32 117.579 88.32V88.248C117.507 88.32 117.507 88.32 117.435 88.32C117.291 88.392 117.219 88.464 117.147 88.536H117.435C117.435 88.464 117.435 88.392 117.435 88.392H117.579C117.507 88.392 117.507 88.464 117.435 88.536C117.291 88.68 117.147 88.752 116.931 88.824V88.68C116.859 88.752 116.715 88.752 116.715 88.752C116.643 88.824 116.571 88.896 116.499 89.04C116.571 89.04 116.715 89.04 116.715 89.04L116.499 89.184C116.427 89.256 116.355 89.256 116.283 89.256V89.184C116.283 89.256 116.139 89.256 115.995 89.328H116.283C116.211 89.472 116.067 89.616 115.851 89.616V89.472C115.779 89.472 115.707 89.544 115.635 89.544C115.491 89.616 115.419 89.76 115.347 89.76H115.707C115.563 89.832 115.491 89.904 115.347 89.904V89.76C115.275 89.832 115.275 89.904 115.275 89.904C115.059 89.976 114.843 90.12 114.771 90.264C114.627 90.264 114.411 90.336 114.339 90.408C114.195 90.624 114.051 90.696 113.835 90.696C113.907 90.552 114.123 90.48 114.267 90.408C114.627 89.976 115.059 89.76 115.491 89.4C115.779 89.112 116.211 88.824 116.643 88.68C117.075 88.248 117.651 87.816 118.155 87.528C118.299 87.384 118.443 87.312 118.659 87.24L118.803 87.096C118.803 87.096 118.875 87.168 118.947 87.168V87.24ZM133.419 87.744C133.419 87.744 133.347 87.744 133.275 87.816C133.347 87.744 133.347 87.672 133.347 87.672C133.419 87.6 133.491 87.6 133.491 87.672L133.419 87.744ZM130.827 87.888C130.827 87.96 130.683 88.032 130.611 88.032C130.683 88.032 130.755 87.96 130.827 87.888ZM132.627 88.032C132.699 87.96 132.843 87.96 132.987 87.888C132.843 87.96 132.771 88.032 132.627 88.032ZM130.611 88.104C130.539 88.176 130.467 88.176 130.323 88.248C130.395 88.176 130.539 88.104 130.611 88.104ZM132.339 88.248C132.411 88.104 132.483 88.104 132.627 88.104C132.483 88.176 132.483 88.248 132.339 88.248ZM131.547 88.68C131.691 88.392 132.051 88.32 132.267 88.248C132.123 88.464 131.835 88.608 131.547 88.68ZM130.107 88.392C130.035 88.464 129.963 88.464 129.819 88.536C129.891 88.464 130.035 88.392 130.107 88.392ZM129.747 88.536L129.603 88.68C129.603 88.608 129.675 88.608 129.747 88.536ZM130.107 89.472C129.819 89.904 129.315 90.12 128.883 90.264C128.739 90.48 128.667 90.552 128.451 90.624C128.307 90.768 128.163 90.84 127.947 90.912C128.019 90.696 128.235 90.624 128.379 90.552C128.523 90.336 128.667 90.264 128.811 90.192C129.171 89.904 129.603 89.616 130.107 89.472C130.467 89.184 130.755 88.896 131.187 88.824C130.899 89.256 130.611 89.4 130.107 89.472ZM116.499 89.184V89.04C116.427 89.04 116.355 89.112 116.283 89.184H116.499ZM117.795 89.688C117.723 89.76 117.651 89.76 117.651 89.832C116.715 90.552 115.779 91.2 114.915 91.848C114.771 91.992 114.555 92.136 114.339 92.136C114.411 91.992 114.555 91.776 114.771 91.704C115.635 90.984 116.571 90.264 117.507 89.688L117.723 89.472C117.723 89.472 117.867 89.472 117.867 89.544C117.867 89.544 117.867 89.616 117.795 89.688ZM127.731 89.688C127.659 89.832 127.515 89.904 127.299 89.976C127.371 89.76 127.587 89.76 127.731 89.688ZM115.275 90.12C115.275 90.048 115.275 89.976 115.275 89.976H115.347C115.275 89.976 115.275 90.048 115.275 90.12ZM126.651 90.264C126.579 90.408 126.363 90.48 126.291 90.624C126.363 90.408 126.507 90.336 126.651 90.264ZM113.259 91.2C113.331 91.056 113.475 90.984 113.619 90.912C113.547 91.056 113.403 91.2 113.259 91.2ZM126.291 91.992C126.795 91.488 127.371 91.056 127.875 90.912C127.443 91.416 126.867 91.704 126.291 91.992ZM125.787 92.28C125.859 92.136 126.003 92.064 126.219 91.992C126.075 92.136 125.931 92.208 125.787 92.28ZM157.318 86.304C157.39 86.16 157.462 86.016 157.534 85.872L156.886 85.512C156.526 85.224 156.094 85.224 155.734 85.368L155.158 85.584C154.366 86.016 153.574 86.448 152.782 86.88L146.734 90.408C146.518 90.552 146.302 90.696 146.086 90.84L142.774 92.856C141.766 93.432 140.758 94.008 139.822 94.584C138.454 95.52 137.086 96.168 135.718 96.96C135.214 97.176 134.71 97.392 134.134 97.68C133.99 97.752 133.774 97.752 133.558 97.824C133.342 97.536 133.342 97.248 133.342 96.96C133.27 96.096 133.342 95.232 133.558 94.368C133.63 94.152 133.63 93.936 133.558 93.72C133.702 93.576 133.846 93.432 133.774 93.216C133.63 92.928 133.774 92.712 133.918 92.496L134.134 91.992C134.206 91.848 134.278 91.704 134.278 91.488V91.56L134.494 91.056C134.566 90.912 134.566 90.768 134.638 90.624L134.854 90.264H134.782C134.926 90.048 135.07 89.76 135.142 89.544C135.43 88.752 135.862 88.032 136.366 87.456C136.438 87.384 136.51 87.24 136.582 87.168L136.726 86.808C136.798 86.736 136.798 86.664 136.87 86.52C137.662 85.44 138.526 84.36 139.534 83.424C139.606 83.352 139.75 83.28 139.822 83.208L141.046 82.56C141.262 82.416 141.478 82.272 141.694 82.344C141.766 82.488 141.838 82.56 141.838 82.704C141.91 83.136 141.982 83.64 141.982 84.072C141.91 84.936 141.838 85.8 141.838 86.592C141.766 86.808 141.766 86.952 141.766 87.168C141.838 87.456 141.982 87.6 142.27 87.744C142.558 87.816 142.846 87.672 142.99 87.384L143.422 86.736C143.71 85.8 143.926 84.792 143.854 83.856C143.854 83.064 143.638 82.344 143.134 81.768C142.702 81.336 142.27 80.904 141.766 80.544C141.046 80.112 140.254 80.04 139.462 80.4L138.526 80.832C137.806 81.336 137.23 81.912 136.654 82.488C135.43 83.64 134.638 85.08 133.63 86.376C133.126 87.528 132.334 88.608 131.83 89.832C131.182 91.56 130.606 93.288 130.462 95.16C130.39 96.024 130.39 96.888 130.822 97.68C131.326 98.616 132.118 99.192 132.982 99.624C133.198 99.768 133.486 99.84 133.702 99.84C134.206 99.84 134.638 99.84 135.142 99.768C135.934 99.624 136.726 99.336 137.446 99.048C139.318 98.256 140.974 97.104 142.702 96.024C143.782 95.376 144.79 94.584 145.942 93.936C147.742 92.784 149.614 91.632 151.414 90.48L156.382 87.384C156.742 87.168 157.03 87.024 157.318 86.808C157.39 86.808 157.462 86.664 157.534 86.52C157.534 86.448 157.39 86.376 157.318 86.304ZM137.302 82.92L137.734 82.56C138.31 81.912 138.382 81.84 138.958 81.624L138.742 81.984C138.814 82.2 138.814 82.2 138.526 82.272C138.454 82.416 138.31 82.488 138.238 82.632H137.806C137.806 82.776 137.734 82.92 137.734 83.064C137.518 83.208 137.23 83.28 136.87 83.496C137.086 83.28 137.158 83.064 137.302 82.92ZM138.886 83.28C139.102 82.992 139.39 82.776 139.75 82.56C139.894 82.416 140.11 82.344 140.254 82.272C140.326 82.272 140.326 82.2 140.398 82.2C140.398 82.128 140.47 82.2 140.47 82.2C140.47 82.2 140.47 82.272 140.398 82.272H140.254C140.11 82.416 140.038 82.632 139.822 82.776C138.598 83.784 137.59 84.936 136.654 86.232C136.51 86.448 136.366 86.592 136.15 86.736C136.222 86.592 136.222 86.448 136.366 86.304C137.086 85.224 137.878 84.144 138.886 83.28ZM136.006 86.952C136.006 86.88 136.006 86.88 136.078 86.88V86.952C136.078 86.952 136.006 86.952 136.006 87.024V86.952ZM136.726 87.168C136.654 87.168 136.582 87.168 136.582 87.168V87.456C136.582 87.384 136.654 87.24 136.726 87.168ZM136.366 87.744L136.582 87.456C136.51 87.456 136.438 87.456 136.366 87.456V87.744ZM135.43 87.96L135.214 88.248C135.286 88.104 135.358 88.032 135.43 87.96ZM152.494 89.184L152.926 88.896C152.854 89.04 152.638 89.112 152.494 89.184ZM135.574 89.256V89.184C135.574 89.184 135.574 89.256 135.502 89.256H135.574ZM134.998 90.336C134.926 90.336 134.854 90.336 134.854 90.264C134.854 90.408 134.854 90.408 134.854 90.552L134.998 90.336ZM150.55 90.408C150.55 90.408 150.55 90.408 150.478 90.408L150.55 90.336C150.622 90.336 150.622 90.336 150.694 90.264L150.55 90.408ZM149.398 91.2C149.326 91.2 149.326 91.2 149.254 91.272C149.326 91.2 149.326 91.2 149.326 91.128C149.398 91.128 149.398 91.128 149.398 91.128V91.2ZM147.886 91.992C148.102 91.92 148.246 91.848 148.39 91.704C148.318 91.92 148.102 91.992 147.886 91.992ZM146.014 93.288C146.158 93.072 146.302 92.856 146.662 92.784C146.518 93.144 146.23 93.144 146.014 93.288ZM235.501 42.744C235.501 42.6 235.429 42.528 235.357 42.384C234.709 41.592 233.845 40.944 232.837 40.656C231.325 40.224 229.741 40.008 228.229 39.864C225.781 39.72 223.405 39.576 221.029 39.504C215.557 39.432 210.157 39.432 204.685 39.432C199.933 39.504 195.181 39.504 190.357 39.648C188.485 39.648 186.685 39.72 184.813 39.792C183.301 39.792 181.789 39.792 180.277 39.864C180.061 39.864 179.773 39.864 179.557 39.648C179.485 39.648 179.485 39.576 179.413 39.576C179.485 39.504 179.485 39.36 179.557 39.288V39.216C179.629 39.216 179.701 39.144 179.773 39.072C179.773 38.928 179.773 38.784 179.917 38.712L180.133 38.352C180.277 37.92 180.421 37.416 180.853 37.056C180.853 36.696 181.069 36.408 181.357 36.192C181.429 36.048 181.501 35.904 181.573 35.832C181.717 35.4 181.933 34.968 182.221 34.608C182.509 34.104 182.797 33.6 183.157 33.096C183.445 32.448 183.805 31.872 184.237 31.296C184.453 30.936 184.597 30.504 184.957 30.216C185.101 29.928 185.245 29.568 185.533 29.352C185.677 28.992 185.965 28.704 186.253 28.416V28.272C186.397 27.984 186.541 27.624 186.685 27.408C187.765 25.68 188.917 24.024 189.997 22.368C191.221 20.568 192.445 18.912 193.597 17.184C193.885 16.824 194.101 16.464 194.317 16.104C194.389 15.888 194.461 15.744 194.461 15.528C194.461 15.168 194.317 15.024 194.029 14.88C193.813 14.736 193.669 14.88 193.525 15.024C193.381 15.096 193.309 15.168 193.237 15.24C192.517 16.032 191.797 16.824 191.149 17.616C189.925 19.056 188.701 20.496 187.621 22.008C186.541 23.448 185.533 24.816 184.525 26.256C183.877 27.192 183.301 28.2 182.581 29.136C181.789 30.288 181.069 31.512 180.349 32.664C179.629 33.744 178.909 34.896 178.261 36.048C177.757 36.912 177.181 37.704 176.749 38.568C176.605 38.928 176.317 39.288 176.101 39.576C175.957 39.864 175.669 40.008 175.309 40.008C173.941 40.08 172.501 40.152 171.133 40.224H169.693C167.821 40.368 165.877 40.44 163.933 40.584C162.637 40.656 161.341 40.728 159.973 40.872L155.077 41.304C153.997 41.376 152.989 41.448 151.909 41.592L147.877 42.024C146.509 42.168 145.069 42.312 143.701 42.528C142.045 42.816 140.461 43.032 138.805 43.248C135.565 43.752 132.253 44.256 129.013 44.832C127.645 45.048 126.277 45.336 124.837 45.552C122.461 45.984 120.013 46.416 117.565 46.776C116.269 46.992 114.973 47.28 113.677 47.352C113.029 47.424 112.381 47.424 111.805 47.208C111.733 47.208 111.589 47.28 111.517 47.28V47.568C111.805 48.144 112.309 48.288 112.885 48.36C113.605 48.504 114.397 48.576 115.189 48.504C116.773 48.36 118.429 48.288 120.013 48.072C121.669 47.784 123.325 47.568 125.053 47.352C126.493 47.136 127.933 46.992 129.373 46.776C130.669 46.56 131.965 46.416 133.261 46.2C134.629 46.056 135.997 45.84 137.365 45.696L142.189 45.048C144.493 44.76 146.869 44.544 149.245 44.256C151.405 44.04 153.637 43.896 155.869 43.68L158.317 43.464C159.325 43.392 160.405 43.248 161.485 43.176L168.829 42.744C170.341 42.672 171.925 42.528 173.509 42.528C174.301 42.456 174.445 42.6 174.013 43.392L172.573 46.128C171.205 48.72 169.837 51.312 168.685 53.976C167.821 55.848 166.813 57.648 166.093 59.52L164.149 63.84C163.645 65.064 163.213 66.216 162.709 67.368C162.205 68.664 161.629 69.96 161.125 71.328C160.405 73.416 159.541 75.576 158.749 77.736C158.317 79.104 157.813 80.4 157.381 81.768L155.725 86.88C155.365 88.104 154.861 89.328 154.501 90.624C154.141 91.776 153.781 92.928 153.493 94.08C153.133 95.376 152.701 96.6 152.341 97.824C152.053 98.616 151.909 99.336 151.693 100.128C150.829 102.432 150.253 104.88 149.533 107.256C148.957 109.2 148.453 111.216 147.877 113.16C147.445 114.672 147.085 116.256 146.725 117.768C146.581 118.272 146.725 118.56 147.157 118.56C147.517 118.632 147.661 118.776 147.877 118.992C148.165 119.208 148.165 119.208 148.525 118.92C148.597 118.776 148.669 118.776 148.741 118.92C148.813 119.064 148.957 119.064 149.029 118.992C149.317 118.776 149.461 118.488 149.533 118.128C149.677 117.624 149.821 117.048 149.821 116.544C149.821 116.04 149.893 115.608 150.037 115.176L150.397 113.736C150.469 113.448 150.541 113.232 150.757 113.016C150.757 112.512 150.901 112.152 151.117 111.72C151.117 111.288 151.261 110.856 151.477 110.424V110.496C151.621 109.848 151.837 109.272 151.981 108.624V108.696L152.197 108.12C152.197 107.904 152.269 107.76 152.341 107.544C152.341 107.328 152.413 107.04 152.557 106.824C152.557 106.68 152.629 106.464 152.701 106.32C152.701 105.888 152.845 105.456 153.061 105.024C153.133 104.664 153.205 104.304 153.421 103.944V104.016L153.637 103.44H153.565C153.637 102.936 153.781 102.504 153.997 102.144C154.285 101.208 154.573 100.2 154.861 99.264L155.077 98.76C155.077 98.544 155.149 98.4 155.221 98.184C155.293 98.04 155.365 97.824 155.437 97.68L156.085 95.304C156.157 94.944 156.301 94.656 156.517 94.44C156.661 93.648 156.877 92.856 157.237 92.064C157.309 91.704 157.381 91.344 157.597 90.984C157.597 90.696 157.885 90.552 157.957 90.264V90.048C157.957 89.616 158.101 89.184 158.317 88.824L158.533 88.032C158.605 87.744 158.677 87.456 158.821 87.168C158.965 86.88 159.109 86.592 159.181 86.304C159.181 85.872 159.325 85.512 159.541 85.224C159.829 84.144 160.117 83.064 160.621 82.128C160.621 81.768 160.693 81.48 160.909 81.264C161.197 80.976 161.269 80.616 161.269 80.256C161.269 80.184 161.341 80.04 161.413 79.968C161.413 79.752 161.485 79.608 161.557 79.464C161.629 79.32 161.629 79.176 161.701 79.104C161.629 78.744 162.061 78.672 162.061 78.384V78.312C162.133 78.24 162.133 78.168 162.061 78.024L162.205 77.448C162.277 77.088 162.421 76.728 162.637 76.368C162.709 76.296 162.709 76.296 162.781 76.368L162.997 75.864C162.925 75.72 162.925 75.576 162.997 75.504C163.069 75.288 163.213 75.144 163.357 75C163.285 74.856 163.213 74.64 163.285 74.424C163.357 74.136 163.501 73.776 163.717 73.488C163.717 73.344 163.789 73.128 163.861 72.984C163.933 72.84 164.005 72.696 164.077 72.624C164.077 72.408 164.077 72.192 164.293 72.048C164.293 71.904 164.365 71.832 164.437 71.688C164.437 71.328 164.581 71.04 164.797 70.752C164.797 70.536 164.869 70.392 165.013 70.248C165.013 69.888 165.157 69.6 165.301 69.312L165.733 68.88C165.589 68.736 165.517 68.592 165.661 68.376C165.733 68.232 165.805 68.088 165.877 67.944H166.021C166.021 67.872 165.949 67.872 165.877 67.872C165.949 67.8 165.949 67.656 166.021 67.584C166.165 66.72 166.525 65.928 166.957 65.208L167.101 64.848C167.173 64.488 167.245 64.128 167.533 63.912C167.461 63.552 167.677 63.336 167.821 63.048C167.893 62.904 167.893 62.76 168.037 62.688C168.037 62.328 168.181 62.04 168.397 61.752C168.469 61.608 168.541 61.536 168.541 61.392V61.464C168.613 60.96 168.829 60.528 169.117 60.168C169.189 60.024 169.261 59.952 169.261 59.808C169.333 59.52 169.549 59.448 169.693 59.232L169.621 59.304C169.693 59.16 169.765 59.016 169.837 58.944C169.693 58.656 169.765 58.44 169.909 58.224C170.053 57.792 170.269 57.288 170.557 56.928C170.629 56.784 170.701 56.712 170.701 56.568C170.773 56.424 170.773 56.28 170.917 56.208C170.917 56.064 170.989 55.92 171.061 55.848C171.277 55.128 171.565 54.48 171.997 53.832C172.069 53.76 172.141 53.616 172.141 53.472C172.285 52.968 172.501 52.464 172.861 52.032C172.933 51.96 173.005 51.816 173.077 51.672C173.149 51.6 173.221 51.456 173.221 51.312L173.437 50.952C173.437 50.808 173.509 50.664 173.581 50.592C173.653 50.448 173.653 50.376 173.797 50.232C173.869 50.16 173.941 50.016 173.941 49.872C174.013 49.728 174.013 49.584 174.157 49.512C174.157 49.368 174.229 49.224 174.301 49.152L174.517 48.792C174.517 48.648 174.589 48.504 174.661 48.432C174.733 48.288 174.733 48.144 174.877 48.072C174.877 47.928 174.949 47.784 175.021 47.712C175.093 47.568 175.093 47.424 175.237 47.352C175.309 47.208 175.381 47.136 175.453 46.992H175.381C175.453 46.848 175.525 46.776 175.597 46.632V46.488C176.245 45.264 176.821 44.112 177.469 42.96C177.757 42.456 178.189 42.312 178.765 42.24C179.845 42.24 180.997 42.168 182.077 42.168C185.893 42.024 189.781 41.88 193.597 41.808C196.765 41.736 199.933 41.664 203.029 41.592H211.453C216.421 41.52 221.461 41.592 226.501 41.88C228.157 41.952 229.813 42.096 231.469 42.312C232.693 42.456 233.917 42.6 235.069 43.176C235.213 43.32 235.429 43.464 235.645 43.248C235.717 43.032 235.645 42.888 235.501 42.744ZM182.509 33.096C182.509 33.024 182.581 33.024 182.581 33.096V33.168C182.509 33.168 182.509 33.24 182.437 33.24C182.509 33.168 182.509 33.168 182.509 33.096ZM182.221 34.608H182.509C182.437 34.536 182.293 34.536 182.221 34.608ZM180.277 38.352H180.133C180.133 38.496 180.133 38.568 180.133 38.712L180.277 38.352ZM179.773 39.288H179.557C179.557 39.36 179.557 39.504 179.557 39.576L179.773 39.288ZM175.669 45.48L175.453 45.696C175.669 44.904 176.101 44.256 176.461 43.536C176.605 43.32 176.821 43.032 176.965 42.744C177.037 42.816 177.037 42.888 177.037 42.888C176.677 43.824 176.173 44.688 175.669 45.48ZM175.237 46.128C175.237 46.272 175.237 46.416 175.093 46.488C175.093 46.632 175.021 46.776 174.877 46.848C174.805 47.352 174.517 47.784 174.301 48.216C173.365 50.016 172.501 51.888 171.637 53.76C170.773 55.56 169.909 57.288 169.117 59.16C167.605 62.472 166.237 65.784 164.941 69.168C163.357 73.056 161.917 77.016 160.621 80.904C159.181 84.936 157.813 88.968 156.517 93.072C155.509 96.24 154.429 99.408 153.421 102.576C152.269 106.32 151.117 110.064 150.109 113.88C150.037 114.312 149.893 114.672 149.677 115.104C149.605 114.672 149.605 114.672 149.677 114.456C149.821 113.736 150.037 113.016 150.253 112.368C152.125 105.672 154.213 99.048 156.373 92.496C157.741 88.176 159.181 83.856 160.693 79.608C162.133 75.432 163.717 71.328 165.301 67.296C166.741 63.768 168.181 60.312 169.765 56.928C171.205 53.76 172.789 50.664 174.373 47.568C174.517 47.28 174.589 46.992 174.877 46.776C174.877 46.632 174.949 46.56 175.093 46.488C175.093 46.344 175.093 46.2 175.237 46.056C175.237 45.912 175.309 45.84 175.453 45.768C175.453 45.912 175.381 46.056 175.237 46.128ZM173.293 51.312H173.221C173.293 51.456 173.293 51.6 173.293 51.672V51.312ZM170.557 52.104L170.413 52.32C170.413 52.248 170.485 52.176 170.557 52.104ZM172.213 53.832C172.213 53.76 172.285 53.616 172.357 53.544C172.285 53.544 172.213 53.472 172.213 53.472V53.832ZM170.773 56.928C170.773 56.784 170.845 56.712 170.917 56.568C170.845 56.568 170.773 56.568 170.773 56.568V56.928ZM168.253 57.144C168.253 57.288 168.181 57.36 168.181 57.432H168.037C168.109 57.36 168.181 57.288 168.253 57.144ZM168.037 57.504C167.965 57.576 167.965 57.72 167.893 57.792C167.893 57.648 167.965 57.576 168.037 57.504ZM167.677 58.728H167.533C167.533 58.656 167.605 58.656 167.677 58.728ZM167.461 58.728C167.461 58.872 167.389 58.944 167.317 59.016C167.317 58.944 167.389 58.8 167.461 58.728ZM167.317 59.088C167.245 59.232 167.245 59.304 167.173 59.376C167.173 59.304 167.245 59.16 167.317 59.088ZM169.333 60.168C169.333 60.024 169.333 59.952 169.261 59.808C169.261 59.952 169.261 60.024 169.261 60.168H169.333ZM169.261 60.168H169.117C169.189 60.24 169.261 60.24 169.261 60.168ZM166.669 60.456C166.669 60.384 166.669 60.384 166.741 60.312C166.741 60.384 166.741 60.456 166.741 60.456L166.597 60.672C166.597 60.6 166.597 60.528 166.669 60.456ZM165.877 62.328C165.877 62.184 165.949 62.04 166.021 61.968C166.021 61.608 166.165 61.32 166.381 61.104V61.608C166.309 61.68 166.237 61.824 166.237 61.968C166.309 61.968 166.309 61.968 166.381 61.968L166.237 62.328C166.165 62.472 166.093 62.688 166.093 62.832V62.328C166.093 62.328 166.165 62.328 166.237 62.328V61.968C166.165 61.968 166.093 61.968 166.021 61.968V62.328C166.021 62.328 165.949 62.328 165.877 62.328V62.832C165.733 62.976 165.733 63.12 165.661 63.192H165.517C165.517 62.904 165.661 62.616 165.877 62.328ZM166.021 62.904C165.949 62.976 165.949 63.12 165.877 63.192C165.877 63.12 165.877 62.976 165.877 62.904H166.021ZM165.517 63.264C165.517 63.408 165.445 63.48 165.301 63.552C165.301 63.408 165.373 63.336 165.517 63.264ZM165.301 63.624C165.301 63.768 165.373 63.912 165.373 64.056C165.229 64.2 165.085 64.344 164.941 64.416C165.013 64.128 165.085 63.84 165.301 63.624ZM164.797 64.848C164.797 64.704 164.869 64.56 164.941 64.488C164.941 64.632 164.941 64.776 164.797 64.848C164.797 65.208 164.653 65.496 164.437 65.712C164.437 65.424 164.581 65.136 164.797 64.848ZM167.173 65.208C167.173 65.064 167.245 64.992 167.317 64.848C167.245 64.848 167.173 64.848 167.173 64.848V65.208ZM163.357 68.448C163.357 68.088 163.429 67.8 163.717 67.584C163.717 67.224 163.861 66.936 164.077 66.648C164.077 66.288 164.149 66 164.437 65.784C164.437 65.928 164.437 66.144 164.437 66.288H164.581C164.581 66.36 164.509 66.36 164.437 66.288C164.293 66.432 164.149 66.504 164.077 66.648C164.077 66.864 164.077 67.008 164.005 67.224C163.933 67.296 163.861 67.44 163.717 67.584C163.717 67.8 163.717 67.944 163.645 68.088C163.573 68.232 163.429 68.304 163.357 68.448C163.357 68.664 163.285 68.808 163.285 69.024L162.997 69.312C162.997 69.024 163.141 68.736 163.357 68.448ZM165.373 69.312H165.301L165.373 69.384V69.312ZM162.637 70.248C162.637 69.888 162.709 69.6 162.997 69.384C162.997 69.528 162.997 69.744 162.925 69.888C162.853 70.032 162.709 70.104 162.637 70.248C162.637 70.608 162.493 70.896 162.277 71.112C162.349 70.824 162.349 70.464 162.637 70.248ZM163.141 69.888C163.141 69.96 163.069 69.96 162.997 69.888H163.141ZM162.205 71.184C162.277 71.328 162.205 71.544 162.061 71.688C162.061 71.472 162.133 71.328 162.205 71.184ZM151.477 103.8C151.477 103.152 151.693 102.576 151.981 102C152.053 101.352 152.197 100.776 152.557 100.2C152.557 99.984 152.557 99.768 152.701 99.624C152.845 98.832 153.061 98.04 153.421 97.32C153.493 97.104 153.493 96.888 153.493 96.672C153.709 95.952 153.925 95.232 154.213 94.512C154.285 94.296 154.357 94.008 154.501 93.864C154.645 92.856 154.933 91.92 155.437 90.984C155.365 90.552 155.509 90.192 155.797 89.904C155.725 89.616 155.869 89.328 155.941 89.04L159.037 79.68C159.109 79.464 159.181 79.248 159.397 79.104C159.397 78.888 159.397 78.672 159.541 78.528C159.613 78.312 159.613 78.096 159.685 77.952C159.901 77.16 160.189 76.44 160.477 75.648C160.549 75.432 160.621 75.288 160.837 75.144C160.837 74.928 160.837 74.712 160.981 74.568C161.053 74.424 160.981 74.28 161.053 74.136C161.341 73.344 161.629 72.624 161.989 71.832C161.989 71.76 162.061 71.76 162.061 71.76V72.264C162.133 72.264 162.205 72.264 162.277 72.264L162.061 72.768C162.061 73.128 161.917 73.416 161.701 73.704C161.701 73.848 161.701 74.064 161.557 74.208C161.485 74.568 161.413 74.856 161.197 75.072C161.197 74.928 161.197 74.784 161.197 74.568H160.981C160.981 74.784 160.981 74.928 160.981 75.144H161.197C161.197 75.288 161.125 75.504 160.981 75.648C160.909 75.792 160.909 75.792 160.837 75.648L160.621 76.224C160.909 76.584 160.693 76.8 160.477 77.088C160.477 77.304 160.405 77.448 160.261 77.664C160.261 77.808 160.189 78.024 160.117 78.168C160.117 78.384 160.045 78.528 159.901 78.672V78.168C159.829 78.312 159.685 78.384 159.541 78.528C159.541 78.744 159.541 78.888 159.541 79.104H159.757C159.685 79.248 159.685 79.464 159.541 79.608C159.541 79.824 159.541 79.968 159.397 80.184C159.325 80.328 159.325 80.544 159.181 80.688C159.181 80.904 159.181 81.12 159.037 81.264C159.037 81.48 158.965 81.624 158.821 81.768C158.821 81.984 158.749 82.128 158.677 82.344C158.677 82.56 158.605 82.704 158.461 82.848C158.461 83.064 158.461 83.28 158.317 83.424C158.245 84 158.029 84.504 157.741 85.08C157.741 85.368 157.669 85.656 157.381 85.8C157.309 85.872 157.237 86.016 157.237 86.088C157.093 86.304 157.093 86.448 157.021 86.664C157.093 86.664 157.165 86.664 157.237 86.664V86.16C157.381 86.304 157.309 86.448 157.237 86.664C157.165 86.88 157.165 87.024 157.021 87.168V86.664C156.949 86.88 156.877 87.024 156.877 87.24H157.021C157.021 87.384 156.949 87.6 156.877 87.744C156.805 87.96 156.805 88.104 156.661 88.248V87.744C156.517 87.888 156.517 88.104 156.517 88.32H156.661C156.661 88.464 156.589 88.68 156.517 88.824C156.445 89.04 156.445 89.184 156.301 89.328V88.824C156.229 89.04 156.157 89.184 156.157 89.4H156.301C156.229 89.4 156.229 89.472 156.157 89.4C156.013 89.544 155.941 89.688 155.941 89.904C156.085 90.12 156.085 90.264 155.941 90.408C155.941 90.264 155.941 90.12 155.941 89.904H155.797C155.797 90.12 155.797 90.264 155.941 90.48C155.941 90.624 155.869 90.84 155.797 90.984L155.581 91.488C155.581 91.344 155.581 91.128 155.581 90.984H155.437C155.437 91.2 155.437 91.416 155.581 91.56C155.581 91.632 155.581 91.848 155.437 91.92C155.293 91.992 155.293 92.136 155.221 92.208C155.149 92.424 155.077 92.568 155.077 92.784H155.005C155.293 93.072 155.149 93.36 154.933 93.504C154.789 93.648 154.717 93.72 154.717 93.864C154.789 94.08 154.789 94.224 154.717 94.44C154.645 94.656 154.645 94.8 154.501 94.944C154.501 95.088 154.501 95.232 154.357 95.304C154.213 95.376 154.213 95.52 154.141 95.664C154.069 95.808 153.997 96.024 153.997 96.168C153.853 96.384 153.853 96.528 153.781 96.744C153.925 96.96 153.925 97.104 153.781 97.32L153.565 97.824C153.565 97.968 153.565 98.112 153.421 98.184C153.277 98.256 153.277 98.4 153.277 98.544C153.133 98.688 153.061 98.904 153.061 99.048V99.12C152.989 99.264 152.917 99.408 152.917 99.624H152.701C152.701 99.84 152.701 100.056 152.557 100.2V100.92C152.413 101.064 152.413 101.208 152.341 101.424C152.269 101.568 152.197 101.784 152.197 102C152.269 102.144 152.269 102.36 152.197 102.504C152.125 102.648 152.125 102.792 151.981 102.864C151.837 102.936 151.837 103.08 151.837 103.224L151.621 103.8C151.837 103.944 151.765 104.16 151.621 104.304C151.621 104.376 151.621 104.448 151.477 104.448C151.477 104.448 151.477 104.376 151.477 104.304H151.261C151.261 104.088 151.261 103.944 151.477 103.8ZM162.061 72.768V72.264C161.917 72.408 161.917 72.552 161.917 72.768H162.061ZM164.077 72.984H163.933C163.933 73.056 164.005 72.984 164.077 72.984ZM161.557 73.704H161.701C161.629 73.632 161.629 73.632 161.557 73.704ZM161.341 74.208H161.557C161.557 74.064 161.557 73.848 161.557 73.704L161.341 74.208ZM160.981 75.648C160.981 75.504 160.981 75.288 160.981 75.144H160.837C160.837 75.288 160.837 75.504 160.837 75.648H160.981ZM162.781 76.368H162.637C162.709 76.44 162.709 76.44 162.781 76.368ZM160.261 77.088H160.477C160.477 76.872 160.477 76.728 160.477 76.584L160.261 77.088ZM160.117 77.664C160.189 77.664 160.189 77.664 160.261 77.664V77.088C160.117 77.232 160.117 77.448 160.117 77.664ZM162.277 77.448H162.205C162.349 77.52 162.421 77.52 162.493 77.52C162.421 77.448 162.349 77.448 162.277 77.448ZM159.901 78.168C159.973 78.168 160.045 78.168 160.117 78.168V77.664C159.973 77.808 159.973 78.024 159.901 78.168ZM159.541 79.608C159.541 79.464 159.541 79.248 159.541 79.104H159.397C159.397 79.248 159.397 79.464 159.397 79.608H159.541ZM159.181 80.184H159.397C159.397 79.968 159.397 79.824 159.397 79.608L159.181 80.184ZM159.037 80.688C159.109 80.688 159.109 80.688 159.181 80.688V80.184C159.037 80.328 159.037 80.544 159.037 80.688ZM158.821 81.264H159.037C159.037 81.048 159.037 80.904 159.037 80.688L158.821 81.264ZM158.677 81.768C158.749 81.768 158.749 81.768 158.821 81.768V81.264C158.677 81.408 158.677 81.624 158.677 81.768ZM158.461 82.344C158.533 82.344 158.605 82.344 158.677 82.344V81.768C158.533 81.984 158.533 82.128 158.461 82.344ZM160.693 82.128H160.621L160.693 82.2V82.128ZM158.317 82.848C158.389 82.848 158.389 82.848 158.461 82.848V82.344C158.317 82.488 158.317 82.704 158.317 82.848ZM158.101 83.352C158.173 83.424 158.245 83.424 158.317 83.424V82.848C158.173 82.992 158.173 83.208 158.101 83.352ZM157.669 84.864C157.597 84.864 157.597 84.936 157.597 85.008C157.597 85.008 157.669 85.008 157.741 85.08C157.741 85.008 157.741 84.864 157.669 84.864ZM157.525 85.08L157.597 85.008H157.525V85.08ZM158.893 87.168H158.821V87.24L158.893 87.168ZM156.877 87.744V87.24C156.805 87.384 156.733 87.6 156.661 87.744H156.877ZM156.517 88.824V88.32C156.445 88.464 156.373 88.68 156.301 88.824H156.517ZM155.581 90.984H155.797C155.725 90.84 155.653 90.912 155.581 90.984ZM151.117 105.096C151.117 104.808 151.117 104.592 151.261 104.376V105.096C151.477 105.456 151.261 105.816 151.045 106.176H151.117C151.045 106.248 151.045 106.392 150.901 106.464C150.757 106.536 150.757 106.752 150.757 106.824C150.613 107.04 150.469 107.184 150.397 107.328C150.541 106.536 150.685 105.744 151.117 105.096ZM149.821 109.344C149.893 109.128 149.893 108.912 149.965 108.624C150.037 108.192 150.181 107.76 150.325 107.4C150.325 107.616 150.397 107.832 150.397 108.048C150.253 108.264 150.181 108.408 150.181 108.624H149.965C149.965 108.912 150.037 109.128 150.037 109.344H149.821C149.821 109.56 149.749 109.776 149.677 109.92C149.677 109.704 149.677 109.56 149.821 109.344ZM149.461 110.568C149.461 110.352 149.533 110.136 149.677 109.992C149.605 110.208 149.605 110.424 149.461 110.568ZM149.317 111.216C149.317 111.432 149.317 111.648 149.317 111.864H149.101C149.101 111.648 149.173 111.432 149.317 111.216C149.317 111 149.317 110.784 149.461 110.64C149.461 110.856 149.389 111 149.317 111.216ZM148.885 112.584C148.957 112.368 148.957 112.152 149.101 111.936C149.101 112.08 149.101 112.224 149.173 112.44C149.173 112.584 149.101 112.656 148.885 112.584ZM148.885 113.16C148.885 113.16 148.813 113.16 148.741 113.088C148.813 112.944 148.813 112.8 148.885 112.656V113.16ZM185.915 86.376C184.475 87.168 182.819 87.816 177.995 90.336C176.267 91.272 174.539 92.208 172.955 93.288C172.523 93.648 172.091 93.936 171.659 94.224C171.155 94.584 171.011 94.512 170.795 94.08C170.723 93.936 170.651 93.792 170.651 93.576C170.363 92.784 170.075 91.992 169.859 91.2C169.499 90.12 169.211 88.968 169.067 87.816C168.995 86.952 169.067 86.088 169.427 85.224C169.715 84.432 170.147 83.568 170.507 82.776H170.723C170.795 82.632 170.867 82.56 170.939 82.416V82.2C171.083 81.912 171.299 81.552 171.587 81.336L171.803 81.12C171.947 80.832 172.163 80.544 172.451 80.328C172.667 80.184 172.811 79.968 172.883 79.68C172.811 79.752 172.667 79.752 172.595 79.752C172.523 79.824 172.451 79.896 172.379 79.896C172.235 80.184 171.947 80.4 171.731 80.544C171.803 80.256 172.019 80.04 172.307 79.824C172.379 79.752 172.451 79.68 172.523 79.68C172.595 79.536 172.739 79.392 172.883 79.248C172.955 79.248 173.027 79.176 173.099 79.104L173.315 78.888C173.675 78.528 174.035 78.24 174.467 78.024C174.755 77.808 174.971 77.592 175.331 77.52C175.403 77.376 175.547 77.376 175.691 77.376C175.619 77.52 175.475 77.52 175.403 77.592C175.115 77.808 174.899 78.024 174.611 78.096C174.251 78.528 173.819 78.816 173.387 79.032L173.171 79.248C173.099 79.248 173.099 79.32 173.027 79.392C172.955 79.464 172.955 79.608 172.883 79.68C173.315 79.536 173.675 79.248 173.963 78.96C174.755 78.312 175.547 77.88 176.339 77.376C176.915 77.088 177.419 76.8 177.995 76.584C178.211 76.44 178.283 76.152 178.139 76.008C177.851 75.72 177.563 75.504 177.131 75.504C176.699 75.576 176.339 75.648 175.907 75.792C173.963 76.368 172.235 77.52 170.723 78.888C169.715 79.752 168.779 80.76 167.987 81.84C167.051 82.992 166.619 84.216 166.547 85.584C166.403 86.664 166.547 87.744 166.835 88.752C167.267 90.336 167.771 91.992 168.203 93.576L168.779 95.664C168.923 96.096 168.779 96.456 168.419 96.816C167.483 97.536 166.691 98.328 165.827 99.12C164.027 100.704 162.299 102.432 160.715 104.232C159.491 105.6 158.267 106.968 157.187 108.408C155.315 111 153.587 113.592 152.219 116.4C151.139 118.416 150.347 120.504 149.771 122.592C149.411 123.888 149.267 125.112 149.411 126.408C149.483 127.488 149.987 128.28 150.923 128.784C151.427 129.072 151.931 129.36 152.507 129.576C153.227 129.864 154.091 129.864 154.955 129.648C156.611 129.288 158.123 128.64 159.563 127.704C163.739 124.968 167.123 121.584 169.859 117.48C169.931 117.336 170.003 117.192 170.147 117.048H170.075C170.147 116.904 170.219 116.76 170.363 116.688V116.616C170.435 116.544 170.507 116.4 170.579 116.328H170.363C170.507 115.968 170.579 115.68 170.867 115.392L171.731 113.232C171.803 113.088 171.875 112.944 171.947 112.872C172.307 112.728 172.235 112.44 172.307 112.152V112.008C172.379 112.008 172.307 112.08 172.307 112.152C172.523 111.792 172.595 111.504 172.595 111.144C172.595 110.928 172.595 110.784 172.667 110.568C172.883 109.848 172.955 109.128 173.099 108.336C173.171 107.4 173.243 106.464 173.171 105.456C173.099 103.584 172.811 101.712 172.379 99.84C172.235 99.12 172.091 98.328 171.875 97.608C171.731 97.104 171.875 96.744 172.307 96.456C172.379 96.312 172.523 96.24 172.595 96.168C174.971 94.296 180.803 90.768 183.539 89.472C189.731 86.52 187.787 85.368 185.915 86.376ZM172.523 78.24L172.739 78.024C173.099 77.664 173.531 77.304 174.107 77.16C174.179 77.016 174.251 76.944 174.395 77.088C174.467 77.16 174.323 77.232 174.251 77.376C173.819 77.664 173.387 78.024 172.883 78.24L172.667 78.456C172.595 78.528 172.523 78.528 172.523 78.6V78.456C172.451 78.528 172.379 78.528 172.307 78.6H172.451C172.451 78.672 172.379 78.744 172.307 78.816V78.6C172.235 78.672 172.163 78.744 172.091 78.816H172.019C171.947 78.816 171.875 78.888 171.875 78.888C171.803 78.888 171.803 78.816 171.803 78.744C172.019 78.528 172.235 78.312 172.523 78.24ZM172.739 78.24H172.883C172.883 78.24 172.811 78.168 172.739 78.168V78.24ZM172.595 78.312C172.523 78.312 172.523 78.384 172.523 78.456H172.667C172.739 78.384 172.739 78.312 172.739 78.24C172.667 78.312 172.595 78.312 172.595 78.312ZM171.155 81.12L171.299 80.976C171.227 81.048 171.227 81.12 171.155 81.192V81.12ZM176.555 92.856C176.699 92.712 176.843 92.568 177.059 92.496C176.915 92.64 176.771 92.784 176.555 92.856ZM174.683 92.856C174.539 93.072 174.395 93.144 174.179 93.216C174.323 93.072 174.467 92.928 174.683 92.856ZM175.979 93.216C176.123 93.072 176.267 92.928 176.483 92.856C176.339 93.072 176.195 93.144 175.979 93.216ZM173.315 93.792C173.459 93.576 173.675 93.504 173.891 93.432C173.747 93.576 173.603 93.792 173.531 93.936C173.459 93.864 173.387 93.792 173.315 93.792V93.936C173.387 93.936 173.459 93.936 173.459 93.936L173.315 94.152C173.315 94.08 173.315 94.008 173.315 93.936H173.171C173.171 93.864 173.243 93.864 173.315 93.792ZM175.187 93.72C175.259 93.576 175.475 93.432 175.691 93.432C175.547 93.576 175.403 93.72 175.187 93.72ZM171.587 95.16C171.515 95.016 171.587 94.944 171.731 94.872C171.803 94.8 171.947 94.728 172.091 94.656L172.307 94.44C172.523 94.224 172.811 94.008 173.099 93.936V94.152C172.883 94.296 172.739 94.512 172.523 94.656C172.451 94.728 172.379 94.8 172.307 94.8V94.656C172.307 94.656 172.235 94.728 172.163 94.728C172.163 94.728 172.163 94.8 172.091 94.872C172.163 94.872 172.235 94.872 172.307 94.872L172.091 95.016C172.019 95.088 171.947 95.16 171.803 95.16H171.587ZM174.179 94.512C173.891 94.872 173.531 95.088 173.171 95.232C172.739 95.664 172.307 96.096 171.803 96.312H171.731V96.24C172.091 95.736 172.595 95.448 173.099 95.16C173.387 94.872 173.747 94.584 174.107 94.44C174.323 94.224 174.611 94.008 174.899 93.936C174.755 94.224 174.467 94.368 174.179 94.512ZM172.379 94.512C172.379 94.584 172.379 94.584 172.307 94.656H172.523C172.451 94.584 172.379 94.584 172.379 94.512ZM161.363 104.592L161.579 104.376C161.651 104.16 161.795 104.016 162.011 103.872C162.083 103.8 162.155 103.728 162.227 103.728C162.155 103.728 162.155 103.8 162.155 103.872H162.371C162.371 103.8 162.371 103.728 162.371 103.656H162.227C162.371 103.296 162.659 103.008 163.019 102.792L163.235 102.576C163.451 102.144 163.811 101.784 164.243 101.496L164.459 101.28C164.531 101.208 164.603 101.208 164.603 101.136C165.179 100.416 165.755 99.84 166.475 99.336L166.691 99.12C166.763 99.048 166.835 98.976 166.907 98.976C166.979 98.904 167.051 98.832 167.051 98.76L167.267 98.544C167.339 98.544 167.411 98.472 167.483 98.4L167.699 98.184C167.771 98.184 167.843 98.112 167.915 98.04C167.987 97.968 168.059 97.896 168.131 97.896C168.131 97.824 168.203 97.752 168.275 97.68L168.491 97.464C168.563 97.464 168.635 97.392 168.707 97.32C168.851 97.248 168.923 97.176 168.923 97.392C168.851 97.392 168.851 97.392 168.779 97.392V97.536C168.779 97.536 168.851 97.536 168.923 97.536L168.707 97.752C168.635 97.752 168.563 97.824 168.491 97.896C168.419 97.968 168.347 98.04 168.275 98.04C168.347 98.04 168.347 97.968 168.347 97.896C168.275 97.968 168.203 97.968 168.203 97.968C168.203 97.968 168.131 98.04 168.131 98.112H168.275C168.203 98.184 168.131 98.184 168.131 98.256C168.131 98.184 168.131 98.112 168.131 98.112H167.987C167.987 98.184 167.915 98.256 167.915 98.256H168.059C167.987 98.328 167.987 98.4 167.915 98.4V98.256C167.843 98.328 167.843 98.328 167.771 98.328C167.771 98.328 167.771 98.4 167.699 98.472C167.771 98.472 167.843 98.472 167.915 98.472L167.699 98.616C167.627 98.688 167.555 98.76 167.483 98.832L167.267 98.976C167.195 99.048 167.123 99.12 167.123 99.192C167.051 99.12 167.051 99.048 167.051 99.048H166.979C166.979 99.048 166.979 99.12 166.907 99.12C166.979 99.12 167.051 99.192 167.051 99.192C166.979 99.264 166.979 99.264 166.907 99.336L166.691 99.552C166.259 100.056 165.827 100.56 165.251 100.992C165.179 100.992 165.107 101.064 165.035 101.136L164.819 101.352C164.747 101.424 164.675 101.424 164.675 101.496C164.675 101.424 164.675 101.424 164.675 101.352H164.531C164.531 101.424 164.459 101.496 164.459 101.496H164.603C164.531 101.568 164.531 101.64 164.459 101.712H164.387C164.315 101.928 164.171 102.072 164.027 102.216L163.811 102.432C163.739 102.504 163.667 102.504 163.595 102.576L163.379 102.792C163.307 102.864 163.235 102.864 163.235 102.936C163.235 102.864 163.235 102.864 163.235 102.792H163.019C163.091 102.864 163.163 102.864 163.163 102.936L162.947 103.296C162.875 103.368 162.875 103.44 162.803 103.512V103.296C162.731 103.368 162.659 103.44 162.587 103.512H162.731C162.659 103.584 162.659 103.584 162.587 103.656V103.512C162.515 103.584 162.443 103.584 162.371 103.656H162.515C162.515 103.728 162.443 103.8 162.371 103.872L162.155 104.16C162.155 104.088 162.155 103.944 162.155 103.872H162.011C162.011 104.016 161.939 104.088 161.939 104.232C162.011 104.232 162.083 104.232 162.155 104.232L161.939 104.376C161.867 104.448 161.795 104.52 161.723 104.592L161.507 104.736C161.435 104.88 161.363 105.024 161.291 105.096C161.219 105.168 161.147 105.24 161.147 105.312C161.147 105.24 161.147 105.168 161.147 105.096H160.931C161.003 104.88 161.147 104.664 161.363 104.592ZM168.563 97.608V97.68C168.635 97.68 168.635 97.752 168.707 97.752C168.707 97.68 168.707 97.608 168.707 97.608H168.563ZM168.419 97.752C168.347 97.824 168.347 97.896 168.347 97.896H168.491C168.491 97.824 168.491 97.824 168.491 97.752H168.419ZM155.459 114.528C157.691 110.64 160.427 107.112 163.523 103.8C165.179 102.072 166.835 100.344 168.707 98.76C168.779 98.616 168.923 98.544 169.067 98.472H169.139V98.616C169.067 98.76 168.923 98.904 168.779 98.976L164.963 102.648C162.587 105.096 160.427 107.688 158.411 110.424C157.403 111.792 156.467 113.16 155.603 114.672C155.459 114.96 155.315 115.32 154.955 115.536C155.099 115.176 155.243 114.888 155.459 114.528ZM167.555 98.616C167.555 98.616 167.627 98.616 167.699 98.616V98.472C167.699 98.472 167.627 98.472 167.555 98.472V98.616ZM167.411 98.688C167.339 98.688 167.339 98.76 167.339 98.76C167.411 98.76 167.411 98.832 167.483 98.832V98.616C167.483 98.688 167.411 98.688 167.411 98.688ZM167.195 98.832C167.195 98.904 167.123 98.904 167.123 98.976H167.267C167.267 98.904 167.267 98.904 167.267 98.832H167.195ZM164.243 119.496C162.947 121.08 161.579 122.52 160.067 123.816C158.771 124.896 157.475 125.832 156.107 126.696C155.315 127.2 154.523 127.56 153.659 127.92C153.299 128.064 153.083 127.992 152.867 127.704C152.723 127.488 152.579 127.272 152.507 126.984C152.363 126.264 152.219 125.616 152.363 124.896C152.363 124.608 152.363 124.32 152.435 124.032C152.435 122.88 152.723 121.728 153.227 120.576C153.371 120.36 153.299 120.072 153.587 119.856C153.587 119.424 153.803 118.992 154.091 118.632H154.019C154.163 118.272 154.307 117.912 154.523 117.552C154.811 116.688 155.243 115.968 155.747 115.176C155.819 115.104 155.891 114.96 155.963 114.816V114.888L156.179 114.456V114.528C156.611 113.736 156.899 112.944 157.547 112.296V112.368L157.763 111.936V112.008C157.907 111.648 158.123 111.288 158.411 111.072L158.627 110.712C158.915 110.064 159.419 109.488 159.923 108.912C159.995 108.84 160.067 108.768 160.139 108.768V108.696C160.283 108.336 160.499 108.048 160.787 107.832C161.363 107.184 161.795 106.392 162.443 105.816C162.587 105.672 162.731 105.528 162.875 105.312H162.947C162.947 105.24 163.019 105.168 163.091 105.168V105.096C163.307 104.88 163.523 104.664 163.739 104.448L163.955 104.232C165.035 102.936 166.259 101.784 167.411 100.632C167.915 100.128 168.491 99.696 169.067 99.192C169.211 99.12 169.427 99.192 169.499 99.336C169.571 99.48 169.571 99.624 169.643 99.768C169.931 101.784 170.075 103.944 170.003 106.032C169.931 108.912 169.139 111.72 167.699 114.384C166.691 116.184 165.611 117.912 164.243 119.496ZM166.907 99.192C166.835 99.192 166.835 99.264 166.763 99.192V99.336H166.907C166.907 99.264 166.835 99.264 166.907 99.192ZM166.619 99.408C166.619 99.48 166.619 99.48 166.691 99.552C166.691 99.48 166.691 99.48 166.691 99.408H166.619ZM164.891 101.136C164.891 101.136 164.963 101.136 165.035 101.136V100.992C164.963 101.064 164.891 101.064 164.891 101.136ZM164.675 101.208C164.675 101.208 164.675 101.28 164.675 101.352H164.819C164.819 101.28 164.891 101.208 164.891 101.136C164.819 101.136 164.747 101.208 164.675 101.208ZM164.459 101.712V101.496C164.387 101.568 164.387 101.568 164.315 101.568C164.387 101.568 164.387 101.64 164.459 101.712ZM163.595 102.432H163.811C163.811 102.36 163.811 102.288 163.811 102.216L163.595 102.432ZM163.451 102.576C163.451 102.576 163.523 102.576 163.595 102.576V102.432C163.523 102.504 163.451 102.504 163.451 102.576ZM163.379 102.792C163.379 102.72 163.451 102.648 163.451 102.576H163.235C163.235 102.648 163.235 102.72 163.235 102.792H163.379ZM161.723 104.592C161.723 104.52 161.723 104.448 161.795 104.376C161.795 104.376 161.867 104.376 161.939 104.376V104.232C161.867 104.304 161.795 104.304 161.723 104.376H161.579C161.579 104.448 161.579 104.52 161.579 104.592H161.723ZM161.579 104.592C161.507 104.592 161.435 104.592 161.363 104.592L161.507 104.736C161.579 104.664 161.579 104.664 161.579 104.592ZM160.931 105.168C160.931 105.168 160.931 105.24 160.931 105.312H160.787C160.787 105.24 160.859 105.168 160.931 105.168ZM160.715 105.312V105.672C160.643 105.744 160.571 105.744 160.499 105.816H160.643C160.643 105.888 160.571 105.96 160.499 106.032V105.816C160.427 105.888 160.355 105.96 160.283 106.032H160.139C160.211 105.744 160.427 105.456 160.715 105.312ZM159.275 107.112C159.347 106.896 159.491 106.68 159.707 106.536C159.779 106.32 159.923 106.176 160.067 106.032V106.392C159.995 106.464 159.923 106.536 159.851 106.536H159.707C159.635 106.68 159.635 106.824 159.635 106.896L159.419 107.112C159.491 107.112 159.563 107.112 159.635 107.112L159.419 107.256C159.419 107.184 159.419 107.184 159.419 107.112H159.275C159.275 107.184 159.203 107.256 159.203 107.256H159.059C159.131 107.256 159.203 107.184 159.275 107.112ZM159.059 107.328L158.987 107.616C158.915 107.688 158.771 107.76 158.627 107.76C158.771 107.616 158.843 107.4 159.059 107.328ZM159.419 107.328L159.203 107.616C159.203 107.544 159.203 107.4 159.275 107.328H159.419ZM158.411 108.192L158.627 107.832C158.627 107.976 158.627 108.048 158.627 108.192H158.411C158.411 108.264 158.411 108.336 158.411 108.336H158.195C158.267 108.336 158.339 108.264 158.411 108.192ZM158.195 108.408C158.195 108.48 158.195 108.624 158.123 108.696H157.979C158.051 108.552 158.123 108.48 158.195 108.408ZM158.555 108.408L158.339 108.696C158.339 108.624 158.411 108.48 158.411 108.408H158.555ZM170.867 113.952C170.867 113.88 170.867 113.88 170.939 113.808C171.011 113.88 170.939 113.88 170.867 113.952ZM169.859 116.256C169.211 117.408 168.491 118.56 167.627 119.568C167.483 119.784 167.267 119.928 167.051 120.072C167.123 119.784 167.339 119.496 167.483 119.28C168.563 117.912 169.427 116.4 170.219 114.888C170.435 114.6 170.507 114.24 170.867 114.024C170.651 114.816 170.291 115.536 169.859 116.256ZM166.403 118.488C166.259 118.704 166.115 118.92 165.899 118.992C165.971 118.776 166.115 118.56 166.331 118.416L167.195 116.976C167.555 116.328 167.987 115.752 168.347 115.104C168.491 114.888 168.563 114.672 168.779 114.528C168.779 114.672 168.779 114.888 168.707 115.032L168.491 115.392C168.635 115.32 168.707 115.176 168.779 115.032H168.923C168.851 115.392 168.707 115.68 168.419 115.968C168.419 116.112 168.419 116.256 168.275 116.328C168.203 116.472 168.131 116.616 167.987 116.688C167.987 116.832 167.915 116.904 167.771 116.976L167.843 116.688C167.771 116.76 167.699 116.904 167.555 117.048C167.555 117.048 167.555 117.048 167.627 117.048H167.771C167.771 117.192 167.699 117.264 167.555 117.336C167.555 117.264 167.555 117.12 167.627 117.048C167.483 117.12 167.411 117.264 167.339 117.408C166.979 117.696 166.763 118.2 166.403 118.488ZM168.419 115.968C168.491 115.752 168.491 115.608 168.491 115.392C168.347 115.536 168.347 115.752 168.275 115.968H168.419ZM171.083 115.464C171.011 115.464 170.939 115.392 170.867 115.392C170.867 115.536 170.795 115.752 170.795 115.896L171.083 115.464ZM154.955 115.608C154.955 115.752 154.883 115.968 154.739 116.112C154.739 115.896 154.811 115.752 154.955 115.608ZM170.579 116.328C170.651 116.184 170.723 116.04 170.795 115.968V115.896C170.723 116.04 170.651 116.184 170.579 116.256V116.328ZM168.275 115.968C168.203 116.04 168.131 116.184 168.059 116.328C168.131 116.256 168.131 116.256 168.203 116.256L168.275 115.968ZM154.739 116.184C154.595 116.616 154.451 117.048 154.019 117.336C154.163 116.904 154.379 116.472 154.739 116.184ZM167.843 116.688H167.987C167.987 116.544 168.059 116.4 168.059 116.328C167.987 116.4 167.915 116.544 167.843 116.688ZM167.555 117.408L167.339 117.696C167.339 117.624 167.339 117.48 167.411 117.408H167.555ZM153.659 118.272V118.416L153.587 118.488L153.515 118.416C153.587 118.344 153.587 118.272 153.659 118.272ZM153.083 119.568V119.64H153.011C153.083 119.64 153.083 119.568 153.083 119.568Z" fill="#332E54"/>
</svg>
